<svg width="386" height="475" viewBox="0 0 386 475" fill="none" xmlns="http://www.w3.org/2000/svg">
<path d="M517.055 234.425C517.055 235.607 516.275 236.77 516.262 237.952C516.24 239.134 516.907 240.316 516.868 241.498C516.833 242.679 517.861 243.899 517.809 245.076C517.757 246.258 517.521 247.435 517.456 248.612C517.382 249.794 517.7 251.005 517.608 252.182C517.517 253.364 517.9 254.593 517.791 255.765C517.687 256.943 516.85 258.063 516.724 259.235C516.597 260.412 516.17 261.556 516.027 262.728C515.878 263.9 514.475 264.906 514.318 266.074C514.153 267.246 515.765 268.666 515.586 269.834C515.408 271.001 515.194 272.174 514.998 273.341C514.802 274.509 514.048 275.581 513.83 276.739C513.612 277.902 513.822 279.15 513.586 280.304C513.351 281.462 512.296 282.453 512.048 283.606C511.795 284.759 511.647 285.937 511.377 287.085C511.107 288.238 512.266 289.735 511.974 290.879C511.686 292.027 510.867 293.052 510.562 294.195C510.261 295.339 509.133 296.264 508.81 297.398C508.488 298.537 508.335 299.724 507.995 300.853C507.651 301.987 506.4 302.835 506.043 303.96C505.686 305.089 505.219 306.167 504.84 307.287C504.466 308.407 504.923 309.803 504.535 310.913C504.139 312.028 504.862 313.549 504.452 314.654C504.043 315.764 502.452 316.446 502.021 317.547C501.594 318.648 502.47 320.268 502.025 321.364C501.585 322.46 498.652 322.546 498.19 323.632C497.729 324.724 497.676 325.968 497.197 327.049C496.722 328.131 497.567 329.799 497.075 330.876C496.578 331.953 494.6 332.339 494.09 333.407C493.576 334.474 494.011 335.985 493.48 337.043C492.952 338.101 492.491 339.197 491.95 340.246C491.405 341.299 490.216 342.014 489.658 343.057C489.1 344.101 488.922 345.34 488.342 346.374C487.762 347.408 487.104 348.39 486.512 349.414C485.919 350.439 485.056 351.302 484.446 352.317C483.84 353.332 483.788 354.676 483.165 355.681C482.538 356.687 480.668 356.911 480.027 357.907C479.387 358.903 479.714 360.504 479.06 361.49C478.402 362.477 478.467 363.94 477.796 364.917C477.125 365.894 476.676 367.037 475.992 368.005C475.308 368.972 474.192 369.644 473.491 370.602C472.794 371.56 471.447 372.046 470.737 372.994C470.022 373.938 470.009 375.415 469.277 376.35C468.549 377.284 467.137 377.694 466.397 378.613C465.656 379.538 464.671 380.257 463.913 381.172C463.159 382.083 462.653 383.198 461.882 384.098C461.111 384.999 460.618 386.133 459.834 387.025C459.045 387.916 457.868 388.459 457.075 389.336C456.274 390.213 456.544 392.062 455.733 392.924C454.927 393.791 452.752 393.386 451.929 394.24C451.101 395.092 451.842 397.451 451.001 398.291C450.164 399.129 448.321 398.995 447.471 399.82C446.626 400.649 446.682 402.417 445.819 403.232C444.957 404.047 443.963 404.748 443.087 405.553C442.211 406.354 440.194 405.925 439.305 406.711C438.416 407.502 438.795 409.718 437.901 410.49C436.999 411.267 434.764 410.504 433.853 411.267C432.942 412.03 431.904 412.625 430.979 413.374C430.058 414.122 429.595 415.428 428.665 416.161C427.73 416.895 427.017 417.91 426.072 418.63C425.127 419.349 423.85 419.635 422.895 420.346C421.941 421.051 421.141 421.961 420.172 422.652C419.203 423.344 418.49 424.393 417.516 425.068C416.538 425.744 415.598 426.483 414.609 427.146C413.621 427.808 411.959 427.464 410.961 428.113C409.963 428.763 409.655 430.462 408.647 431.094C407.64 431.726 407.013 432.99 405.996 433.61C404.979 434.225 403.364 433.885 402.338 434.487C401.311 435.085 399.609 434.517 398.573 435.106C397.537 435.691 396.679 436.551 395.633 437.119C394.587 437.691 393.811 438.728 392.755 439.278C391.704 439.833 390.793 440.654 389.728 441.196C388.668 441.734 388.017 443.097 386.947 443.622C385.877 444.138 384.84 444.77 383.761 445.274C382.681 445.781 380.604 444.151 379.514 444.641C378.43 445.132 378.097 447.269 377.003 447.742C375.909 448.215 374.776 448.611 373.672 449.067C372.573 449.527 371.388 449.794 370.279 450.232C369.17 450.671 368.221 451.518 367.103 451.94C365.989 452.366 364.929 452.972 363.81 453.376C362.692 453.781 361.02 452.675 359.892 453.062C358.764 453.449 357.453 453.247 356.315 453.617C355.183 453.991 354.084 454.404 352.946 454.761C351.808 455.114 351.028 456.589 349.881 456.924C348.738 457.264 347.225 456.296 346.077 456.615C344.93 456.937 344.058 458.202 342.906 458.503C341.754 458.804 340.722 459.561 339.561 459.849C338.404 460.133 337.454 461.311 336.293 461.578C335.131 461.845 333.733 461.096 332.562 461.346C331.395 461.591 330.234 461.862 329.062 462.094C327.891 462.322 326.739 462.644 325.563 462.86C324.392 463.075 323.033 462.206 321.852 462.404C320.676 462.597 319.61 463.432 318.429 463.608C317.248 463.784 316.149 464.511 314.963 464.674C313.782 464.838 312.573 464.791 311.387 464.933C310.206 465.074 308.881 463.918 307.69 464.047C306.504 464.171 305.367 464.627 304.176 464.73C302.991 464.838 301.838 465.289 300.648 465.376C299.457 465.466 298.33 466.425 297.134 466.494C295.943 466.567 294.768 467.04 293.572 467.092C292.381 467.143 291.186 467.625 289.991 467.664C288.8 467.698 287.576 467.109 286.38 467.13C285.185 467.147 283.975 465.242 282.775 465.242C281.58 465.242 280.365 467.879 279.17 467.861C277.974 467.844 276.803 466.36 275.608 466.33C274.412 466.296 273.236 465.896 272.046 465.844C270.85 465.788 269.616 466.537 268.426 466.468C267.23 466.395 265.953 467.358 264.762 467.272C263.567 467.182 262.357 467.1 261.166 466.997C259.976 466.889 258.776 466.657 257.59 466.532C256.4 466.408 255.363 464.898 254.177 464.756C252.991 464.614 251.651 465.586 250.471 465.423C249.285 465.259 248.032 465.453 246.856 465.272C245.675 465.096 244.875 462.533 243.699 462.335C242.518 462.141 241.081 463.432 239.905 463.217C238.729 463.001 237.707 462.008 236.536 461.771C235.364 461.539 233.942 462.481 232.776 462.236C231.61 461.986 230.607 460.967 229.445 460.701C228.279 460.434 227.402 459.032 226.24 458.748C225.078 458.46 223.425 460.09 222.273 459.789C221.116 459.492 220.427 457.496 219.28 457.178C218.128 456.86 216.793 457.204 215.65 456.869C214.503 456.529 213.207 456.688 212.069 456.335C210.927 455.983 209.924 455.2 208.791 454.83C207.658 454.456 206.762 453.415 205.634 453.028C204.506 452.636 203.195 452.77 202.077 452.366C200.954 451.961 200.183 450.654 199.069 450.237C197.956 449.811 196.259 450.869 195.15 450.43C194.042 449.992 193.097 449.14 191.998 448.688C190.894 448.228 190.036 447.222 188.942 446.749C187.848 446.276 187.096 445.076 186.007 444.59C184.917 444.099 183.428 444.499 182.348 443.992C181.268 443.489 180.006 443.355 178.935 442.835C177.866 442.31 176.497 442.353 175.436 441.816C174.371 441.278 174.033 439.368 172.978 438.818C171.922 438.263 170.862 437.751 169.816 437.179C168.77 436.607 167.044 437.235 166.008 436.65C164.972 436.061 164.138 435.115 163.111 434.513C162.084 433.915 160.527 434.156 159.506 433.541C158.489 432.922 157.554 432.135 156.546 431.507C155.539 430.874 155.327 429.008 154.329 428.363C153.331 427.713 151.717 427.971 150.728 427.309C149.74 426.647 149.692 424.638 148.714 423.963C147.735 423.288 146.25 423.331 145.282 422.633C144.313 421.942 143.19 421.456 142.235 420.751C141.281 420.045 140.505 419.097 139.56 418.378C138.616 417.658 137.748 416.843 136.813 416.109C135.878 415.375 134.865 414.741 133.94 413.993C133.019 413.245 131.337 413.383 130.426 412.62C129.515 411.858 129.399 410.171 128.498 409.394C127.597 408.617 126.02 408.589 125.134 407.797C124.247 407.007 124.478 405 123.606 404.2C122.729 403.399 121.48 402.999 120.617 402.179C119.754 401.364 118.94 400.506 118.087 399.677C117.233 398.848 115.778 398.614 114.939 397.776C114.1 396.937 113.074 396.255 112.25 395.403C111.425 394.549 112.11 392.295 111.3 391.428C110.49 390.561 109.767 389.641 108.967 388.764C108.167 387.887 106.239 388.006 105.453 387.12C104.668 386.228 104.263 385.018 103.496 384.117C102.725 383.217 102.744 381.677 101.988 380.763C101.231 379.852 99.1485 380.005 98.4059 379.08C97.6638 378.156 96.8781 377.255 96.1504 376.321C95.4226 375.387 94.5306 374.558 93.8173 373.614C93.1039 372.671 92.0533 371.951 91.3543 370.993C90.6553 370.035 90.6505 368.581 89.9663 367.614C89.2817 366.647 87.9705 366.094 87.3007 365.117C86.6305 364.14 85.7437 363.282 85.0931 362.296C84.4377 361.309 84.934 359.579 84.293 358.583C83.652 357.587 83.0057 356.596 82.3791 355.591C81.7577 354.585 81.4008 353.422 80.7933 352.407C80.1863 351.392 80.1236 350.072 79.5305 349.048C78.9378 348.023 76.518 348.013 75.9445 346.979C75.3662 345.945 75.2795 344.634 74.72 343.595C74.1609 342.557 73.5103 341.547 72.9656 340.498C72.4208 339.449 72.7006 337.986 72.1703 336.924C71.6452 335.866 71.9729 334.408 71.4617 333.34C70.951 332.273 70.6616 331.129 70.1653 330.052C69.6689 328.98 67.2347 328.765 66.7575 327.683C66.2804 326.602 67.2007 324.929 66.7379 323.837C66.2756 322.751 64.3813 322.241 63.9377 321.145C63.494 320.049 63.5664 318.743 63.1376 317.642C62.7083 316.541 61.9998 315.536 61.5902 314.43C61.1805 313.325 62.3806 311.652 61.9854 310.537C61.5949 309.422 59.4405 308.902 59.0644 307.782C58.6883 306.662 58.5729 305.452 58.216 304.322C57.8595 303.197 57.9127 301.944 57.5702 300.81C57.2281 299.681 56.9243 298.542 56.6014 297.403C56.2785 296.268 57.0786 294.839 56.7701 293.7C56.4663 292.561 54.114 291.941 53.8251 290.793C53.5358 289.649 54.2204 288.267 53.9502 287.114C53.6805 285.965 52.4559 285.022 52.2054 283.864C51.9548 282.711 53.6661 281.152 53.4299 279.994C53.1985 278.836 52.5718 277.768 52.3548 276.606C52.1378 275.448 50.1137 274.594 49.911 273.432C49.7136 272.269 50.8174 270.887 50.6388 269.72C50.4605 268.552 51.2462 267.256 51.0872 266.083C50.9233 264.915 48.6002 264.024 48.4555 262.852C48.3109 261.685 50.1041 260.288 49.9786 259.116C49.8535 257.943 48.8316 256.862 48.7253 255.685C48.6194 254.512 49.8243 253.235 49.7376 252.053C49.6461 250.876 47.5252 249.837 47.4576 248.655C47.3853 247.478 49.3471 246.196 49.294 245.014C49.2412 243.837 47.1251 242.732 47.0863 241.55C47.0528 240.373 46.9033 239.176 46.8841 237.995C46.865 236.813 49.3232 235.612 49.3232 234.425C49.3232 233.243 48.2965 232.066 48.3157 230.884C48.3348 229.703 49.1349 228.55 49.1737 227.368C49.2072 226.186 49.0822 225.013 49.1349 223.836C49.1881 222.654 47.9975 221.415 48.0699 220.238C48.1422 219.056 47.3565 217.808 47.448 216.631C47.5395 215.449 49.3907 214.414 49.5014 213.237C49.6073 212.06 50.3307 210.955 50.4557 209.782C50.5812 208.605 48.7061 207.209 48.8508 206.036C48.9955 204.865 51.1015 203.945 51.2654 202.777C51.4292 201.605 51.5787 200.451 51.7574 199.284C51.9356 198.116 51.5548 196.872 51.7574 195.71C51.9548 194.542 51.8633 193.336 52.0803 192.174C52.2969 191.011 52.0995 189.772 52.3309 188.613C52.5671 187.456 54.0469 186.56 54.2975 185.406C54.5481 184.253 53.7384 182.871 54.0082 181.723C54.2783 180.569 54.0373 179.297 54.3263 178.153C54.6156 177.005 55.1215 175.908 55.4253 174.77C55.729 173.626 57.1893 172.802 57.5126 171.667C57.8355 170.528 56.9435 169.051 57.286 167.917C57.6281 166.783 57.1318 165.386 57.4882 164.261C57.8451 163.132 58.4138 162.055 58.7899 160.935C59.1655 159.815 61.3012 159.281 61.6913 158.166C62.0865 157.051 62.3035 155.883 62.7131 154.778C63.1232 153.668 62.3854 152.133 62.8099 151.032C63.2387 149.931 63.7063 148.835 64.1547 147.739C64.5979 146.643 64.4388 145.285 64.9016 144.198C65.3644 143.107 67.3262 142.645 67.8034 141.563C68.2806 140.481 69.3456 139.666 69.8376 138.589C70.3339 137.512 68.7961 135.501 69.3072 134.434C69.818 133.366 70.3579 132.289 70.8834 131.231C71.4138 130.173 73.2693 129.763 73.814 128.715C74.3587 127.661 75.7179 127.042 76.277 126.003C76.8361 124.96 76.6818 123.544 77.2605 122.51C77.8388 121.476 78.2101 120.332 78.8027 119.308C79.3958 118.283 79.1017 116.739 79.7091 115.724C80.3162 114.709 80.7358 113.555 81.3577 112.55C81.9839 111.544 82.9866 110.753 83.6228 109.757C84.2638 108.761 85.9123 108.404 86.5682 107.418C87.2236 106.431 88.0189 105.545 88.6887 104.567C89.3589 103.591 90.1106 102.68 90.7952 101.713C91.4798 100.746 91.5181 99.3256 92.2171 98.3721C92.9161 97.4143 93.7305 96.5421 94.4487 95.5938C95.1621 94.6502 95.5913 93.4829 96.319 92.5488C97.0468 91.6146 97.6978 90.6091 98.4399 89.6844C99.1821 88.7602 101.192 88.8505 101.949 87.9405C102.706 87.03 103.12 85.8481 103.891 84.9475C104.663 84.0469 105 82.7838 105.781 81.8927C106.567 81.0015 106.774 79.6055 107.574 78.7285C108.374 77.8516 108.803 76.622 109.613 75.7545C110.423 74.8875 112.64 75.3257 113.469 74.4729C114.293 73.6196 113.811 71.504 114.65 70.665C115.489 69.8263 117.484 70.1218 118.337 69.2926C119.186 68.4634 120.01 67.6152 120.873 66.8002C121.735 65.9852 121.677 64.1982 122.555 63.3927C123.432 62.5923 124.984 62.5158 125.876 61.7249C126.763 60.9339 127.597 60.0901 128.498 59.3134C129.399 58.5367 131.053 58.6463 131.969 57.8838C132.879 57.1213 132.465 54.7859 133.391 54.038C134.311 53.2897 135.362 52.6751 136.297 51.9409C137.232 51.2072 139.382 52.0123 140.326 51.2928C141.271 50.5733 141.204 48.5386 142.158 47.8332C143.113 47.1279 143.85 46.1082 144.819 45.417C145.788 44.7259 146.718 43.9634 147.697 43.2868C148.675 42.6099 149.437 41.5949 150.425 40.9373C151.413 40.275 153.095 40.6229 154.093 39.9748C155.09 39.3266 156.469 39.2694 157.477 38.6355C158.484 38.0016 158.662 36.0477 159.679 35.433C160.696 34.8183 161.979 34.6086 163.005 34.0081C164.032 33.4077 165.777 34.0272 166.813 33.441C167.849 32.8548 168.553 31.7063 169.599 31.1345C170.645 30.5626 172.048 30.6722 173.103 30.1194C174.154 29.5666 174.453 27.5841 175.513 27.0456C176.574 26.507 178.535 27.7509 179.61 27.2314C180.681 26.712 181.341 25.3824 182.421 24.8772C183.5 24.3721 183.833 22.2657 184.917 21.7748C186.002 21.284 187.631 21.9702 188.725 21.4984C189.819 21.0266 191.188 21.1982 192.287 20.7407C193.386 20.2832 193.883 18.3579 194.991 17.9194C196.1 17.481 197.768 18.4437 198.881 18.0195C199.995 17.5954 200.722 16.1514 201.846 15.7464C202.964 15.3413 203.981 14.6026 205.109 14.2118C206.237 13.8258 207.596 14.0832 208.729 13.7114C209.861 13.3397 210.748 12.1865 211.891 11.8338C213.028 11.4811 214.874 13.4207 216.021 13.0824C217.164 12.744 218.311 12.4962 219.458 12.1769C220.605 11.8576 221.521 10.7425 222.673 10.4422C223.825 10.142 224.611 8.40255 225.768 8.12141C226.924 7.83545 228.559 9.52726 229.725 9.26035C230.886 8.99349 231.875 8.00223 233.041 7.74969C234.208 7.50188 235.316 6.98716 236.487 6.75844C237.659 6.52968 238.984 7.13493 240.161 6.92045C241.332 6.70601 242.58 6.99193 243.756 6.79654C244.932 6.60116 245.795 4.5043 246.976 4.32796C248.157 4.15163 249.304 3.6751 250.49 3.51305C251.671 3.35103 253.016 4.40422 254.202 4.26126C255.382 4.1183 256.385 2.32641 257.575 2.19777C258.761 2.07386 260.014 2.45509 261.205 2.3455C262.391 2.24065 263.577 1.86893 264.767 1.78313C265.958 1.6926 267.254 3.05557 268.45 2.98409C269.64 2.91261 270.821 2.75055 272.016 2.69813C273.207 2.6457 274.378 1.92136 275.579 1.88798C276.769 1.85461 277.979 2.11197 279.174 2.09292C280.37 2.07386 281.575 2.84586 282.775 2.84586C283.97 2.84586 285.156 2.91734 286.351 2.93643C287.547 2.95549 288.767 1.83078 289.962 1.86893C291.157 1.9023 292.309 3.09367 293.5 3.1461C294.695 3.19853 295.842 3.88476 297.033 3.95624C298.228 4.02772 299.573 1.86416 300.759 1.94996C301.954 2.04049 303.183 1.87848 304.369 1.98329C305.559 2.08814 306.75 2.39789 307.936 2.52179C309.126 2.6457 310.143 4.28508 311.329 4.42804C312.515 4.571 313.807 3.90382 314.988 4.06587C316.174 4.22788 317.499 3.50354 318.675 3.6846C319.856 3.86094 320.796 5.58131 321.972 5.77673C323.153 5.97212 324.156 7.08724 325.327 7.29694C326.503 7.51138 327.944 6.30092 329.116 6.53445C330.286 6.76794 331.299 7.74969 332.465 8.00223C333.632 8.25005 335.131 7.06818 336.293 7.33505C337.459 7.60196 338.457 8.57411 339.619 8.86007C340.78 9.14599 342.129 8.71707 343.286 9.02209C344.443 9.32232 345.668 9.42718 346.82 9.74647C347.971 10.0658 349.114 10.4661 350.256 10.8044C351.404 11.1428 351.886 13.6161 353.023 13.9688C354.166 14.3214 355.491 14.0641 356.624 14.4358C357.756 14.8075 358.87 15.2126 359.998 15.6034C361.126 15.9941 362.47 15.7749 363.589 16.18C364.712 16.5851 365.642 17.4953 366.755 17.9147C367.869 18.3388 369.479 17.5287 370.588 17.9671C371.696 18.4056 372.342 19.9782 373.441 20.4357C374.545 20.8932 375.485 21.7081 376.579 22.1799C377.673 22.6517 378.574 23.5286 379.659 24.0194C380.748 24.5103 382.353 23.8812 383.433 24.3864C384.513 24.8915 385.535 25.5206 386.605 26.04C387.675 26.5642 389.352 25.9209 390.413 26.4594C391.478 26.9979 391.719 29.1043 392.775 29.6619C393.83 30.2147 394.784 30.9343 395.831 31.5062C396.876 32.0781 398.795 31.1202 399.831 31.7063C400.867 32.2925 401.316 33.8985 402.342 34.499C403.369 35.0994 403.639 36.9294 404.656 37.5491C405.673 38.1684 407.312 37.7775 408.319 38.4114C409.327 39.0454 410.768 39.0166 411.765 39.6647C412.763 40.3128 413.361 41.5665 414.349 42.2288C415.337 42.8912 416.894 42.7436 417.873 43.4249C418.851 44.1018 420.013 44.5543 420.977 45.2454C421.946 45.9366 421.594 48.4048 422.548 49.1101C423.503 49.8155 424.992 49.8202 425.937 50.5402C426.882 51.2597 427.682 52.1603 428.617 52.894C429.552 53.6281 430.453 54.3907 431.379 55.1386C432.299 55.8869 433.365 56.4637 434.276 57.2262C435.186 57.9887 436.598 58.1793 437.5 58.956C438.402 59.7327 439.61 60.1761 440.499 60.967C441.383 61.758 441.283 63.6262 442.154 64.427C443.035 65.2274 443.745 66.1852 444.608 67.0002C445.471 67.8152 447.092 67.8582 447.942 68.6874C448.787 69.5166 449.284 70.6985 450.125 71.5419C450.961 72.3806 451.384 73.6149 452.208 74.4682C453.031 75.321 454.369 75.6926 455.18 76.5601C455.99 77.4276 457.232 77.9135 458.03 78.7905C458.827 79.6674 458.304 81.6974 459.089 82.5885C459.873 83.4797 461.93 83.2844 462.701 84.185C463.472 85.0856 464.632 85.6817 465.39 86.5965C466.148 87.5065 465.076 89.8801 465.817 90.7996C466.562 91.7243 467.83 92.2245 468.558 93.1586C469.286 94.0928 470.384 94.7456 471.094 95.694C471.809 96.6376 473.373 96.9808 474.07 97.9338C474.768 98.8916 473.757 101.051 474.441 102.018C475.125 102.986 475.8 103.939 476.472 104.915C477.143 105.892 479.239 105.921 479.892 106.912C480.55 107.899 480.72 109.2 481.357 110.196C482.002 111.192 481.474 112.898 482.097 113.903C482.716 114.909 484.738 115.076 485.344 116.091C485.954 117.106 487.414 117.644 488.006 118.669C488.599 119.693 486.817 122.038 487.388 123.073C487.967 124.106 490.752 123.954 491.314 124.993C491.872 126.032 490.455 128.1 491 129.148C491.545 130.197 492.909 130.831 493.436 131.889C493.963 132.947 494.783 133.866 495.293 134.934C495.802 136.002 495.502 137.436 495.994 138.513C496.487 139.585 497.188 140.562 497.663 141.644C498.143 142.726 499.493 143.436 499.955 144.527C500.417 145.614 500.134 147.005 500.574 148.101C501.019 149.197 501.498 150.274 501.921 151.38C502.348 152.481 504.252 153.043 504.67 154.154C505.08 155.259 504.845 156.613 505.237 157.728C505.629 158.843 504.927 160.325 505.307 161.445C505.681 162.565 505.359 163.895 505.716 165.024C506.069 166.149 508.614 166.611 508.958 167.745C509.298 168.874 507.372 170.652 507.695 171.786C508.017 172.921 508.701 173.94 509.006 175.084C509.311 176.223 509.887 177.286 510.179 178.43C510.466 179.573 510.052 180.869 510.322 182.018C510.593 183.166 511.259 184.21 511.508 185.368C511.76 186.522 511.782 187.708 512.017 188.866C512.248 190.024 513.904 190.906 514.122 192.069C514.336 193.227 514.955 194.328 515.151 195.495C515.351 196.658 514.684 197.964 514.867 199.131C515.046 200.299 515.539 201.423 515.7 202.591C515.865 203.759 515.783 204.96 515.926 206.132C516.075 207.3 515.717 208.524 515.839 209.701C515.966 210.874 517.622 211.903 517.73 213.08C517.835 214.252 516.92 215.525 517.007 216.702C517.099 217.879 517.138 219.061 517.212 220.243C517.282 221.42 516.637 222.63 516.689 223.812C516.741 224.989 516.545 226.171 516.584 227.353C516.619 228.53 516.454 229.703 516.471 230.884C516.489 232.066 517.055 233.234 517.055 234.425Z" stroke="#F5CC82" stroke-opacity="0.4" stroke-width="1.7008" stroke-miterlimit="10"/>
<path d="M285.137 56.4546C285.581 57.5362 286.087 58.5654 286.424 59.6712C286.762 60.7864 287.147 61.8728 287.379 63.0069C287.61 64.1462 288.121 65.2467 288.251 66.4002C288.377 67.5533 288.29 68.7304 288.314 69.8933C288.338 71.0468 287.967 72.1904 287.89 73.3533C287.813 74.5064 287.904 75.6646 287.731 76.8177C287.562 77.9569 287.451 79.1147 287.191 80.254C286.935 81.3787 286.665 82.5081 286.328 83.628C285.99 84.7286 285.914 85.944 285.499 87.0398C285.089 88.1172 283.976 88.9176 283.489 89.985C283.012 91.0336 282.713 92.163 282.159 93.202C281.619 94.217 280.809 95.0845 280.197 96.0853C279.599 97.0715 279.416 98.3247 278.756 99.2924C278.105 100.245 277.411 101.189 276.702 102.123C276.003 103.043 275.381 104.048 274.625 104.945C273.878 105.826 272.682 106.331 271.882 107.194C271.096 108.042 270.667 109.238 269.829 110.063C269.004 110.873 267.982 111.507 267.11 112.293C266.247 113.07 265.105 113.527 264.199 114.276C263.302 115.014 262.502 115.867 261.562 116.577C260.637 117.278 259.697 117.964 258.733 118.636C257.783 119.298 256.93 120.118 255.942 120.747C254.964 121.371 253.826 121.753 252.809 122.348C251.801 122.934 250.76 123.459 249.724 124.011C248.697 124.56 247.892 125.536 246.837 126.056C245.786 126.566 244.605 126.823 243.526 127.3C242.455 127.772 241.318 128.086 240.219 128.525C239.125 128.963 238.002 129.278 236.903 129.668C235.794 130.064 234.892 131.06 233.784 131.413C232.661 131.77 231.509 132.065 230.386 132.375C229.248 132.69 228.005 132.59 226.872 132.856C225.725 133.128 224.616 133.557 223.469 133.776C222.307 134 221.146 134.172 219.994 134.348C218.827 134.529 217.656 134.653 216.499 134.782C215.323 134.915 214.142 134.858 212.981 134.939C211.8 135.025 210.643 135.478 209.476 135.511C208.29 135.544 207.105 135.554 205.938 135.535C204.758 135.516 203.605 134.863 202.444 134.796C201.263 134.725 200.039 135.273 198.882 135.144C197.705 135.02 196.529 134.858 195.382 134.677C194.216 134.496 193.131 133.886 191.994 133.648C190.837 133.404 189.637 133.376 188.514 133.076C187.371 132.771 186.374 132.027 185.27 131.665C184.147 131.298 182.812 131.522 181.727 131.098C180.628 130.664 179.861 129.501 178.811 129.006C177.741 128.501 176.367 128.605 175.35 128.043C174.318 127.471 173.615 126.385 172.641 125.751C171.658 125.108 170.395 124.855 169.474 124.15C168.544 123.435 167.609 122.691 166.751 121.915C165.883 121.128 165.469 119.894 164.678 119.046C163.883 118.193 162.899 117.511 162.186 116.596C161.468 115.681 160.49 114.924 159.863 113.947C159.236 112.975 158.928 111.788 158.388 110.754C157.853 109.729 157.265 108.709 156.826 107.627C156.383 106.546 155.973 105.44 155.636 104.334C155.298 103.219 155.019 102.075 154.787 100.941C154.556 99.8025 154.739 98.6013 154.614 97.4482C154.489 96.2947 153.857 95.1653 153.833 94.0071C153.809 92.8541 154.431 91.7006 154.503 90.5381C154.58 89.3846 154.614 88.241 154.783 87.0876C154.951 85.9487 154.869 84.7526 155.13 83.6134C155.385 82.4887 155.848 81.407 156.185 80.2871C156.523 79.1861 156.98 78.1187 157.395 77.0228C157.805 75.9459 158.055 74.7924 158.542 73.7249C159.019 72.6764 159.608 71.6661 160.157 70.6275C160.697 69.6121 161.333 68.6354 161.945 67.6298C162.543 66.6432 163.112 65.6235 163.772 64.6558C164.423 63.7027 165.266 62.8783 165.975 61.9442C166.674 61.0246 167.57 60.2621 168.327 59.3662C169.074 58.4846 169.691 57.4932 170.491 56.6309C171.277 55.7824 171.87 54.7386 172.704 53.9193C173.528 53.109 174.415 52.3417 175.292 51.5555C176.155 50.7784 176.97 49.9303 177.876 49.1819C178.772 48.4435 179.611 47.6048 180.551 46.8947C181.476 46.1941 182.551 45.6651 183.52 44.9929C184.47 44.3306 185.492 43.7543 186.484 43.1203C187.463 42.4959 188.649 42.1909 189.665 41.5953C190.673 41.0091 191.439 39.9941 192.48 39.4363C193.507 38.8884 194.558 38.3594 195.614 37.8445C196.664 37.3349 197.802 36.9775 198.882 36.501C199.952 36.0292 200.988 35.4572 202.087 35.0187C203.181 34.5803 204.362 34.3849 205.461 33.9942C206.57 33.5986 207.668 33.1935 208.782 32.8408C209.905 32.4834 210.918 31.7543 212.041 31.4445C213.178 31.13 214.364 30.987 215.501 30.7202C216.648 30.4485 217.853 30.4342 218.996 30.2103C220.158 29.9863 221.305 29.7289 222.457 29.5526C223.623 29.3715 224.819 29.4859 225.98 29.3525C227.156 29.219 228.318 29.1427 229.48 29.0617C230.641 28.995 231.798 28.69 232.965 28.6567C234.15 28.6233 235.327 28.2754 236.493 28.2945C237.674 28.3136 238.845 28.7091 240.007 28.7758C241.188 28.8473 242.397 28.547 243.559 28.671C244.735 28.7949 245.796 29.7003 246.948 29.8814C248.114 30.0625 249.276 30.1483 250.413 30.3866C251.57 30.6296 252.809 30.4962 253.932 30.7964C255.074 31.1014 256.062 31.8734 257.166 32.2356C258.29 32.6026 259.49 32.7169 260.569 33.1459C261.668 33.5795 262.753 34.0227 263.803 34.5183C264.874 35.0235 265.818 35.7336 266.831 36.2958C267.862 36.8678 268.922 37.3586 269.892 37.9925C270.875 38.6359 271.81 39.327 272.731 40.0371C273.661 40.7519 274.495 41.557 275.357 42.3337C276.225 43.1204 277.184 43.8016 277.979 44.6502C278.775 45.503 279.204 46.6419 279.917 47.5571C280.636 48.4719 281.565 49.2155 282.192 50.1926C282.819 51.1646 283.624 52.051 284.164 53.0849C284.694 54.1098 284.694 55.3725 285.137 56.4546Z" stroke="#F5CC82" stroke-opacity="0.4" stroke-width="1.7008" stroke-miterlimit="10"/>
<path d="M248.08 28.3038C248.909 27.4412 249.801 26.6454 250.639 25.7971C251.478 24.9488 252.302 24.0815 253.155 23.2427C254.009 22.4088 254.886 21.5938 255.749 20.7694C256.611 19.945 257.513 19.1586 258.39 18.3485C259.267 17.5383 260.068 16.6472 260.959 15.8465C261.846 15.0459 262.781 14.2977 263.683 13.5114C264.584 12.7251 265.505 11.9626 266.415 11.1906C267.327 10.4185 268.286 9.69891 269.206 8.94119C270.132 8.18348 271.043 7.40666 271.978 6.66322C272.913 5.91979 273.838 5.16207 274.788 4.43295C275.733 3.70379 276.644 2.92225 277.598 2.20264" stroke="#F5CC82" stroke-opacity="0.4" stroke-width="1.7008" stroke-miterlimit="10"/>
<path d="M270.667 463.483C269.746 462.73 268.985 461.797 268.078 461.036C267.168 460.27 266.464 459.285 265.562 458.507C264.666 457.733 262.829 457.999 261.943 457.208C261.055 456.417 261.089 454.632 260.217 453.832C259.34 453.032 257.508 453.234 256.65 452.421C255.787 451.608 255.093 450.606 254.245 449.781C253.391 448.959 253.324 447.351 252.485 446.512C251.647 445.673 250.548 445.097 249.719 444.25C248.889 443.402 247.366 443.196 246.552 442.34C245.737 441.476 246.277 439.381 245.477 438.512C244.672 437.639 242.768 437.756 241.978 436.874C241.187 435.992 240.806 434.754 240.025 433.859C239.249 432.969 238.117 432.371 237.35 431.463C236.584 430.56 235.716 429.73 234.964 428.818C234.212 427.902 233.171 427.21 232.434 426.285C231.691 425.361 231.981 423.64 231.253 422.704C230.525 421.77 228.823 421.566 228.11 420.622C227.397 419.678 227.378 418.22 226.674 417.267C225.97 416.314 226.004 414.846 225.315 413.883C224.625 412.921 222.822 412.73 222.147 411.758C221.473 410.786 221.367 409.432 220.706 408.451C220.046 407.469 219.338 406.525 218.687 405.534C218.036 404.548 217.94 403.218 217.303 402.222C216.667 401.226 215.756 400.411 215.13 399.406C214.508 398.4 213.091 397.871 212.479 396.86C211.871 395.85 211.167 394.883 210.57 393.863C209.972 392.843 209.278 391.871 208.695 390.842C208.112 389.812 207.307 388.897 206.738 387.863C206.169 386.829 205.783 385.685 205.229 384.642C204.675 383.598 204.12 382.545 203.576 381.496C203.031 380.448 203.065 379.109 202.535 378.051C202.004 376.998 201.903 375.735 201.388 374.672C200.872 373.609 200.245 372.604 199.739 371.536C199.233 370.469 198.037 369.716 197.546 368.644C197.054 367.571 197.691 366.003 197.213 364.922C196.736 363.844 195.493 363.092 195.025 362.01C194.562 360.923 194.779 359.56 194.326 358.474C193.873 357.382 193.372 356.32 192.933 355.229C192.494 354.132 191.926 353.093 191.501 351.993C191.077 350.892 189.511 350.21 189.096 349.105C188.687 347.999 189.115 346.588 188.715 345.478C188.315 344.368 188.175 343.171 187.785 342.056C187.399 340.941 186.696 339.936 186.32 338.816C185.949 337.696 185.611 336.566 185.25 335.442C184.888 334.317 183.698 333.445 183.351 332.32C183.004 331.196 184.295 329.585 183.963 328.45C183.63 327.321 181.683 326.644 181.36 325.51C181.037 324.376 180.897 323.184 180.593 322.046C180.285 320.907 179.929 319.772 179.63 318.633C179.335 317.494 180.714 315.936 180.434 314.792C180.15 313.649 179.688 312.557 179.417 311.409C179.148 310.26 177.721 309.374 177.466 308.225C177.21 307.077 176.526 306.009 176.285 304.856C176.038 303.703 175.894 302.521 175.663 301.368C175.431 300.214 176.304 298.842 176.087 297.684C175.87 296.526 174.337 295.601 174.13 294.438C173.923 293.28 174.178 292.032 173.985 290.869C173.792 289.706 174.545 288.396 174.361 287.228C174.178 286.065 173.672 284.95 173.503 283.783C173.334 282.615 173.045 281.467 172.891 280.299C172.737 279.131 171.869 278.05 171.725 276.877C171.58 275.71 172.101 274.456 171.966 273.289C171.835 272.116 172.043 270.911 171.922 269.738C171.802 268.566 171.498 267.413 171.392 266.24C171.286 265.068 170.963 263.91 170.867 262.738C170.775 261.565 170.963 260.369 170.881 259.192C170.799 258.015 170.052 256.881 169.985 255.704C169.917 254.527 170.794 253.302 170.736 252.125C170.679 250.948 170.221 249.789 170.177 248.612C170.134 247.436 170.389 246.248 170.361 245.072C170.327 243.895 170.77 242.713 170.751 241.531C170.732 240.354 169.358 239.191 169.348 238.014C169.339 236.837 169.965 235.655 169.97 234.473C169.975 233.296 170.202 232.119 170.221 230.941C170.24 229.764 170.939 228.602 170.968 227.425C170.997 226.248 170.693 225.066 170.732 223.889C170.775 222.711 170.548 221.525 170.606 220.348C170.659 219.171 169.878 217.95 169.941 216.773C170.009 215.596 170.495 214.443 170.577 213.266C170.654 212.089 171.609 210.978 171.701 209.806C171.792 208.629 171.363 207.419 171.465 206.246C171.57 205.074 171.421 203.873 171.536 202.701C171.652 201.528 171.695 200.346 171.826 199.174C171.956 198.002 171.286 196.734 171.431 195.566C171.57 194.394 173.508 193.446 173.662 192.278C173.816 191.111 173.392 189.867 173.556 188.704C173.72 187.536 174.583 186.474 174.761 185.311C174.94 184.143 173.802 182.781 173.99 181.618C174.183 180.455 174.39 179.287 174.592 178.129C174.795 176.966 174.641 175.737 174.853 174.579C175.07 173.421 176.68 172.52 176.911 171.367C177.137 170.209 176.058 168.793 176.299 167.64C176.54 166.487 177.374 165.453 177.625 164.3C177.88 163.146 179.114 162.217 179.379 161.068C179.644 159.92 179.49 158.681 179.769 157.537C180.049 156.389 180.324 155.25 180.613 154.106C180.902 152.962 180.685 151.695 180.989 150.555C181.292 149.417 182.256 148.459 182.575 147.319C182.893 146.181 183.341 145.094 183.674 143.96C184.001 142.826 183.105 141.344 183.447 140.214C183.789 139.085 184.782 138.151 185.134 137.026C185.486 135.901 186.209 134.896 186.575 133.776C186.942 132.656 187.554 131.622 187.93 130.511" stroke="#F5CC82" stroke-opacity="0.4" stroke-width="1.7008" stroke-miterlimit="10"/>
<path d="M288.106 59.0754C289.296 59.1227 290.439 60.1334 291.629 60.2001C292.82 60.2668 293.991 60.4762 295.177 60.5575C296.367 60.6431 297.63 59.733 298.816 59.8328C300.002 59.933 301.149 60.4809 302.335 60.6001C303.521 60.7192 304.701 60.8672 305.882 61.0052C307.068 61.1437 308.24 61.3437 309.42 61.5011C310.601 61.6533 311.849 61.3437 313.026 61.5153C314.207 61.6869 315.248 62.7019 316.424 62.8924C317.6 63.0834 318.959 62.2064 320.13 62.4111C321.302 62.6163 322.266 63.9551 323.437 64.1792C324.608 64.4033 325.867 64.1556 327.033 64.3938C328.199 64.6321 329.231 65.4755 330.392 65.7279C331.554 65.9856 332.759 66.0329 333.916 66.3047C335.073 66.5765 336.316 66.5047 337.469 66.7954C338.625 67.0861 339.623 67.9394 340.775 68.2443C341.927 68.5493 343.214 68.3398 344.361 68.6637C345.509 68.9875 346.617 69.4167 347.759 69.7548C348.902 70.0933 350.03 70.4554 351.167 70.8081C352.305 71.1607 353.51 71.2945 354.642 71.6661C355.775 72.0377 357.019 72.0759 358.147 72.4617C359.27 72.8479 360.383 73.2862 361.501 73.6866C362.62 74.087 363.482 75.1781 364.596 75.5974C365.709 76.0168 366.741 76.6176 367.849 77.0511C368.958 77.4846 370.423 77.0275 371.527 77.4752C372.631 77.9233 373.619 78.6429 374.713 79.1052C375.807 79.5675 377.022 79.7722 378.106 80.2488C379.196 80.7253 380.396 80.973 381.481 81.4642C382.56 81.9549 383.327 83.132 384.402 83.6374C385.477 84.1423 386.412 84.9238 387.482 85.448C388.552 85.9676 389.574 86.5632 390.634 87.097C391.695 87.6307 393.295 87.14 394.35 87.6879C395.406 88.2358 396.283 89.1175 397.329 89.6848C398.375 90.2516 399.488 90.7045 400.525 91.2812C401.561 91.858 402.419 92.7586 403.446 93.3495C404.477 93.9404 405.234 94.9795 406.256 95.5846C407.278 96.1897 408.488 96.4805 409.5 97.0998C410.512 97.7195 411.577 98.258 412.58 98.8919C413.583 99.5259 414.421 100.412 415.419 101.055C416.417 101.699 417.516 102.19 418.499 102.847C419.487 103.505 420.822 103.662 421.801 104.334C422.779 105.006 423.738 105.716 424.708 106.402C425.676 107.089 425.99 108.661 426.949 109.362C427.908 110.058 428.978 110.601 429.928 111.311C430.877 112.021 431.692 112.898 432.632 113.617C433.57 114.342 434.494 115.076 435.422 115.81C436.354 116.544 437.461 117.053 438.381 117.797C439.305 118.545 440.377 119.103 441.287 119.861C442.198 120.618 442.813 121.714 443.715 122.486C444.612 123.258 445.832 123.663 446.726 124.445C447.619 125.227 448.639 125.865 449.515 126.661C450.395 127.457 450.909 128.639 451.776 129.444C452.644 130.25 453.877 130.674 454.735 131.493C455.594 132.308 455.938 133.647 456.783 134.476C457.633 135.306 458.98 135.635 459.816 136.473C460.649 137.312 461.285 138.346 462.113 139.194C462.937 140.043 463.634 141.006 464.449 141.868C465.264 142.731 465.917 143.727 466.719 144.594C467.521 145.466 469.037 145.699 469.83 146.581C470.619 147.463 470.702 148.954 471.482 149.845C472.258 150.737 473.761 151.018 474.528 151.924C475.295 152.824 475.927 153.844 476.676 154.759C477.43 155.669 477.587 157.056 478.332 157.98C479.073 158.9 480.01 159.668 480.738 160.602C481.466 161.531 482.712 162.079 483.427 163.018C484.141 163.956 483.841 165.644 484.538 166.597C485.244 167.545 486.765 167.907 487.457 168.87C488.146 169.828 488.529 171.005 489.205 171.972C489.88 172.94 490.817 173.74 491.48 174.717C492.142 175.694 492.878 176.633 493.528 177.62C494.181 178.606 495.035 179.469 495.672 180.465C496.308 181.461 496.186 182.924 496.805 183.929C497.428 184.935 498.761 185.516 499.371 186.527C499.977 187.537 500.069 188.852 500.666 189.872C501.258 190.892 501.315 192.212 501.89 193.241C502.47 194.271 503.864 194.857 504.426 195.891C504.993 196.925 505.137 198.183 505.686 199.227C506.235 200.27 506.819 201.295 507.355 202.348C507.886 203.401 508.022 204.645 508.544 205.703C509.063 206.761 509.782 207.719 510.288 208.786C510.793 209.854 511.874 210.659 512.366 211.732C512.859 212.804 513.408 213.857 513.883 214.934C514.358 216.016 514.902 217.074 515.36 218.16C515.817 219.247 516.432 220.281 516.876 221.373C517.321 222.464 517.626 223.622 518.053 224.718C518.484 225.819 518.903 226.929 519.317 228.035" stroke="#F5CC82" stroke-opacity="0.4" stroke-width="1.7008" stroke-miterlimit="10"/>
<path d="M49.4727 197.826C50.0169 196.782 50.2871 195.6 50.8462 194.566C51.4053 193.532 52.3117 192.688 52.8852 191.664C53.4587 190.639 54.0613 189.634 54.6492 188.614C55.2375 187.599 55.4976 186.388 56.1003 185.383C56.7026 184.372 57.6713 183.581 58.2883 182.581C58.9054 181.58 59.5464 180.598 60.1778 179.607C60.8093 178.616 61.1518 177.443 61.7976 176.461C62.4434 175.48 63.1328 174.522 63.793 173.55C64.4532 172.577 65.2485 171.696 65.9235 170.733C66.5985 169.771 67.0513 168.651 67.7359 167.698C68.4253 166.745 69.0615 165.749 69.7653 164.805C70.4638 163.861 71.192 162.927 71.9053 161.993C72.6187 161.059 73.2933 160.087 74.0215 159.162C74.7492 158.238 75.7323 157.509 76.4749 156.599C77.217 155.683 77.8 154.645 78.5522 153.739C79.3039 152.834 80.3981 152.209 81.1646 151.318C81.9312 150.422 82.5914 149.445 83.3723 148.564C84.1484 147.682 84.9149 146.786 85.7054 145.914C86.4959 145.042 87.0694 143.974 87.8742 143.112C88.6743 142.249 89.4648 141.372 90.2793 140.52C91.0941 139.666 92.1112 139.009 92.9353 138.17C93.7598 137.331 94.4731 136.378 95.3116 135.549C96.1504 134.72 97.0808 133.981 97.9288 133.166C98.7773 132.346 99.4571 131.35 100.315 130.545C101.173 129.74 102.031 128.925 102.903 128.129C103.776 127.333 104.672 126.561 105.554 125.779C106.436 124.998 107.357 124.254 108.249 123.482C109.14 122.71 110.037 121.943 110.938 121.181C111.84 120.423 113.035 120.008 113.946 119.26C114.857 118.512 115.812 117.821 116.732 117.082C117.653 116.348 118.284 115.252 119.219 114.528C120.15 113.803 121.215 113.246 122.155 112.536C123.095 111.826 124.049 111.125 124.999 110.429C125.948 109.729 126.922 109.062 127.881 108.375C128.84 107.689 129.674 106.827 130.648 106.155C131.617 105.483 132.817 105.139 133.795 104.477C134.774 103.815 135.473 102.743 136.461 102.094C137.449 101.446 138.736 101.251 139.734 100.617C140.732 99.9831 141.609 99.1634 142.611 98.5441C143.614 97.9243 144.776 97.5527 145.788 96.9429C146.8 96.3373 147.764 95.6466 148.781 95.0557C149.803 94.46 150.738 93.7259 151.769 93.1491C152.801 92.5728 153.963 92.2296 154.999 91.6624" stroke="#F5CC82" stroke-opacity="0.4" stroke-width="1.7008" stroke-miterlimit="10"/>
<path d="M282.862 95.5464C283.903 96.1137 284.703 97.0998 285.739 97.6766C286.776 98.2533 288.304 97.972 289.335 98.5582C290.362 99.1444 291.056 100.312 292.078 100.908C293.099 101.503 294.43 101.594 295.447 102.199C296.464 102.804 297.549 103.309 298.561 103.924C299.573 104.539 299.867 106.302 300.875 106.922C301.882 107.546 303.058 107.889 304.06 108.523C305.058 109.157 306.476 109.162 307.468 109.8C308.461 110.444 308.91 111.907 309.898 112.56C310.886 113.212 311.831 113.918 312.814 114.58C313.797 115.238 314.78 115.886 315.759 116.558C316.733 117.225 317.759 117.816 318.733 118.498C319.702 119.174 320.825 119.637 321.789 120.328C322.753 121.014 323.539 121.938 324.493 122.634C325.452 123.33 326.556 123.821 327.505 124.526C328.455 125.231 329.757 125.479 330.701 126.189C331.646 126.899 332.523 127.705 333.463 128.424C334.403 129.144 335.174 130.078 336.105 130.807C337.035 131.536 338.172 132.013 339.098 132.751C340.023 133.49 340.525 134.739 341.445 135.482C342.361 136.226 343.455 136.764 344.366 137.517C345.277 138.27 346.034 139.204 346.935 139.966C347.842 140.729 349.311 140.839 350.208 141.611C351.105 142.383 351.996 143.164 352.888 143.946C353.78 144.723 354.734 145.433 355.621 146.219C356.503 147.005 357.255 147.939 358.132 148.735C359.01 149.531 360.012 150.193 360.885 150.994C361.752 151.795 361.897 153.363 362.76 154.173C363.623 154.983 365.127 155.126 365.979 155.946C366.833 156.76 366.886 158.39 367.734 159.215C368.582 160.039 369.378 160.907 370.216 161.736C371.055 162.57 372.034 163.256 372.868 164.095C373.696 164.934 374.714 165.591 375.538 166.439C376.362 167.288 376.95 168.351 377.765 169.203C378.579 170.057 380.213 170.156 381.023 171.019C381.833 171.882 382.464 172.906 383.264 173.774C384.065 174.641 384.277 176.033 385.072 176.91C385.862 177.786 386.427 178.854 387.212 179.735C387.998 180.617 389.415 180.951 390.191 181.842C390.967 182.733 391.589 183.753 392.355 184.654C393.121 185.549 393.502 186.765 394.264 187.67C395.025 188.576 396.288 189.062 397.04 189.972C397.792 190.882 398.722 191.654 399.465 192.569C400.207 193.484 401.084 194.304 401.822 195.224C402.555 196.148 403.302 197.068 404.029 198.002C404.757 198.931 404.762 200.409 405.48 201.343C406.199 202.281 406.613 203.435 407.322 204.378C408.03 205.322 409.857 205.451 410.556 206.404C411.255 207.352 410.773 209.148 411.462 210.107C412.151 211.064 412.874 211.989 413.559 212.952C414.243 213.914 415.983 214.148 416.653 215.12C417.328 216.087 417.275 217.546 417.936 218.523C418.601 219.5 420.008 219.981 420.664 220.963C421.319 221.944 421.763 223.064 422.408 224.051C423.054 225.037 422.799 226.591 423.435 227.587C424.071 228.578 425.749 228.926 426.37 229.927C426.997 230.927 426.607 232.538 427.224 233.544C427.841 234.55 429.258 235.079 429.865 236.089C430.472 237.099 430.121 238.667 430.713 239.682C431.311 240.697 431.904 241.707 432.487 242.732C433.077 243.752 434.154 244.495 434.733 245.524C435.313 246.554 435.906 247.564 436.472 248.598C437.043 249.632 437.535 250.7 438.093 251.739C438.651 252.778 439.906 253.455 440.451 254.498C440.995 255.542 440.655 257.033 441.191 258.082C441.727 259.13 442.194 260.207 442.721 261.261C443.244 262.314 444.652 262.943 445.17 264.001C445.684 265.059 445.24 266.565 445.745 267.632C446.255 268.695 446.708 269.777 447.196 270.844C447.689 271.912 448.987 272.622 449.467 273.694C449.951 274.766 450.334 275.886 450.805 276.963C451.275 278.04 451.384 279.275 451.846 280.356C452.304 281.438 453.415 282.258 453.864 283.344C454.313 284.431 454.931 285.46 455.367 286.552C455.807 287.643 456.204 288.758 456.627 289.854C457.049 290.95 457.62 292.003 458.034 293.104C458.448 294.205 458.108 295.587 458.505 296.693C458.91 297.798 459.803 298.732 460.2 299.843C460.588 300.953 459.938 302.416 460.313 303.526C460.697 304.642 461.403 305.638 461.773 306.758C462.139 307.873 462.566 308.974 462.915 310.094C463.272 311.214 464.344 312.119 464.688 313.244C465.033 314.368 465.447 315.479 465.773 316.608C466.109 317.738 465.765 319.057 466.083 320.187C466.401 321.317 467.124 322.346 467.429 323.48C467.73 324.614 467.73 325.834 468.026 326.968C468.318 328.108 469.238 329.099 469.517 330.238C469.796 331.377 470.114 332.52 470.38 333.664C470.65 334.808 470.837 335.976 471.09 337.124C471.347 338.273 471.469 339.455 471.709 340.603C471.948 341.752 472.192 342.909 472.419 344.063C472.646 345.216 471.752 346.579 471.97 347.732C472.184 348.885 472.24 350.062 472.441 351.221C472.646 352.379 474.023 353.341 474.214 354.499C474.402 355.657 474.075 356.901 474.249 358.064C474.423 359.227 474.572 360.39 474.737 361.553C474.898 362.715 474.986 363.887 475.134 365.055" stroke="#F5CC82" stroke-opacity="0.4" stroke-width="1.7008" stroke-miterlimit="10"/>
<path d="M133.222 56.073C134.455 56.1113 135.685 56.1969 136.918 56.2493C138.152 56.3018 139.386 56.3255 140.615 56.3874C141.849 56.4545 143.084 56.4446 144.312 56.5259C145.542 56.6067 146.766 56.8067 147.995 56.8975C149.224 56.9929 150.458 57.0355 151.687 57.1452C152.916 57.2549 154.141 57.3787 155.37 57.5026C156.599 57.6265 157.833 57.6884 159.057 57.8269C160.281 57.9649 161.501 58.1649 162.725 58.3176C163.95 58.4703 165.189 58.5081 166.413 58.675" stroke="#F5CC82" stroke-opacity="0.4" stroke-width="1.7008" stroke-miterlimit="10"/>
<path d="M279.628 46.1076C280.779 45.8505 281.922 45.5455 283.079 45.3073C284.235 45.0643 285.364 44.6875 286.525 44.4639C287.687 44.2398 288.921 44.4161 290.082 44.2063C291.244 43.9968 292.319 43.2915 293.485 43.101C294.652 42.91 295.905 43.2485 297.072 43.0674C298.243 42.8911 299.298 41.9569 300.47 41.7948C301.641 41.6331 302.822 41.4993 303.993 41.3565C305.164 41.2138 306.384 41.4185 307.56 41.2899C308.736 41.1613 309.927 41.1944 311.103 41.08C312.279 40.9656 313.436 40.594 314.612 40.4985C315.788 40.4035 317.007 40.8228 318.188 40.7372C319.369 40.6559 320.531 40.3274 321.712 40.2603C322.893 40.1936 324.059 39.7936 325.24 39.7412C326.421 39.6934 327.626 40.3415 328.807 40.3033C329.988 40.2654 331.164 40.1033 332.345 40.0839C333.526 40.065 334.707 40.0031 335.888 39.9983C337.068 39.9936 338.249 40.065 339.43 40.0792C340.611 40.0938 341.792 40.0839 342.973 40.1127C344.154 40.1411 345.354 39.6457 346.535 39.6887C347.716 39.7313 348.873 40.3321 350.054 40.3893C351.235 40.4512 352.416 40.4224 353.597 40.4985C354.778 40.5751 355.964 40.5273 357.145 40.6177C358.325 40.7084 359.506 40.7656 360.682 40.8753C361.858 40.9849 363.03 41.1707 364.206 41.2946C365.382 41.4185 366.553 41.5759 367.725 41.7139C368.901 41.852 370.144 41.4709 371.315 41.6236C372.487 41.7759 373.562 42.6193 374.733 42.7909C375.904 42.9625 377.148 42.6433 378.314 42.8291C379.481 43.0149 380.594 43.5345 381.76 43.7345C382.927 43.9349 384.06 44.2777 385.226 44.497C386.393 44.7163 387.506 45.1404 388.663 45.3739C389.82 45.6075 391.011 45.6836 392.162 45.9313C393.319 46.1795 394.553 46.0698 395.705 46.3365C396.857 46.5988 397.879 47.3897 399.026 47.6663C400.174 47.9475 401.383 47.9665 402.531 48.2619C403.673 48.5574 404.805 48.9006 405.943 49.2103C407.081 49.5199 408.305 49.5393 409.442 49.8631C410.58 50.1874 411.631 50.7878 412.763 51.1306C413.896 51.4738 415.198 51.2785 416.321 51.6359C417.448 51.9933 418.451 52.7223 419.574 53.0943C420.698 53.4659 421.926 53.5278 423.045 53.9141C424.158 54.2998 425.301 54.6336 426.414 55.0387C427.523 55.4439 428.357 56.578 429.46 56.9973C430.564 57.4166 431.73 57.6644 432.829 58.0979C433.927 58.5318 435.191 58.5748 436.28 59.0226" stroke="#F5CC82" stroke-opacity="0.4" stroke-width="1.7008" stroke-miterlimit="10"/>
<path d="M103.848 385.714C103.409 384.613 103.549 383.288 103.13 382.183C102.71 381.077 102.995 379.719 102.59 378.604C102.185 377.489 100.469 376.836 100.083 375.716C99.6928 374.596 100.512 373.08 100.136 371.956C99.7652 370.831 98.8832 369.873 98.5311 368.744C98.1746 367.615 97.0468 366.714 96.7091 365.579C96.3718 364.445 96.4925 363.173 96.1692 362.034C95.8463 360.895 95.5813 359.737 95.2728 358.593C94.9643 357.449 94.362 356.377 94.0727 355.229C93.7833 354.08 93.2482 352.984 92.9785 351.831C92.7039 350.677 93.7929 349.219 93.5376 348.066C93.2822 346.913 92.8482 345.802 92.6072 344.64C92.3662 343.481 91.0554 342.528 90.8336 341.37C90.607 340.208 90.8815 338.949 90.6745 337.787C90.4671 336.624 90.4623 335.423 90.2697 334.255C90.0766 333.088 89.1515 332.03 88.9776 330.857C88.8042 329.69 89.7585 328.355 89.5995 327.183C89.4404 326.011 88.8574 324.895 88.7127 323.723C88.568 322.551 88.1871 321.402 88.0621 320.225C87.9366 319.048 88.6887 317.79 88.5776 316.613C88.4669 315.436 87.5849 314.325 87.4934 313.148C87.3966 311.971 87.0594 310.804 86.9822 309.627C86.9051 308.445 86.6354 307.272 86.5726 306.091C86.5099 304.909 87.4834 303.679 87.4354 302.497C87.3871 301.315 86.3796 300.162 86.346 298.98C86.3172 297.798 86.7077 296.602 86.6929 295.42C86.6785 294.238 87.3727 293.052 87.3727 291.87C87.3727 290.688 86.1386 289.497 86.1582 288.31C86.1774 287.128 87.2524 285.965 87.286 284.783C87.3195 283.602 86.5194 282.391 86.5678 281.209C86.6158 280.028 86.5486 278.836 86.6157 277.654C86.6785 276.472 88.12 275.376 88.202 274.194C88.2839 273.013 87.7052 271.792 87.7967 270.615C87.8934 269.438 87.3679 268.199 87.4786 267.022C87.5897 265.845 88.8669 264.782 88.9972 263.605C89.1223 262.428 88.6308 261.189 88.7706 260.012C88.9153 258.84 88.6839 257.615 88.843 256.442C89.002 255.27 88.9345 254.06 89.1079 252.892C89.2814 251.72 90.1634 250.657 90.3516 249.489C90.5394 248.322 90.6841 247.15 90.8915 245.982C91.0985 244.814 91.7396 243.733 91.9614 242.57C92.1832 241.407 92.6508 240.301 92.8869 239.143C93.1231 237.985 92.8242 236.722 93.0748 235.565C93.3253 234.406 94.0003 233.348 94.2653 232.195C94.5307 231.042 93.7014 229.631 93.9812 228.483C94.2653 227.334 94.6222 226.195 94.9211 225.052C95.2196 223.908 96.3574 222.979 96.6708 221.839C96.9841 220.696 96.3431 219.295 96.6708 218.156C96.9985 217.017 98.3624 216.178 98.7049 215.048C99.047 213.914 98.8592 212.623 99.2205 211.498C99.5774 210.369 100.768 209.511 101.139 208.386C101.515 207.262 101.009 205.851 101.395 204.731C101.785 203.611 102.06 202.453 102.464 201.338C102.869 200.223 103.785 199.298 104.204 198.188C104.624 197.082 104.957 195.943 105.39 194.842C105.824 193.742 106.017 192.545 106.47 191.449C106.918 190.353 108.037 189.533 108.499 188.442C108.962 187.351 108.591 185.912 109.073 184.825C109.555 183.743 110.904 183.048 111.401 181.97C111.898 180.893 111.141 179.245 111.652 178.172C112.162 177.1 112.717 176.042 113.242 174.979C113.767 173.917 114.857 173.126 115.397 172.068C115.937 171.01 116.732 170.085 117.286 169.037C117.841 167.988 117.98 166.721 118.549 165.682C119.118 164.643 120.492 164.042 121.08 163.008C121.663 161.974 121.856 160.73 122.453 159.705C123.051 158.681 123.128 157.351 123.741 156.336C124.352 155.321 126.03 154.945 126.657 153.939C127.283 152.934 127.703 151.804 128.344 150.808C128.985 149.812 129.548 148.773 130.209 147.782C130.865 146.796 131.621 145.881 132.291 144.899C132.961 143.922 133.592 142.926 134.282 141.954C134.966 140.986 134.88 139.471 135.579 138.513C136.277 137.555 137.772 137.169 138.485 136.221C139.198 135.273 139.777 134.229 140.505 133.295C141.232 132.356 141.777 131.279 142.52 130.354C143.262 129.425 143.951 128.458 144.708 127.543C145.465 126.628 146.327 125.798 147.094 124.893C147.865 123.988 148.675 123.12 149.455 122.229C150.236 121.338 150.313 119.818 151.109 118.936C151.904 118.054 153.62 117.992 154.43 117.12C155.24 116.253 155.399 114.776 156.223 113.918C157.047 113.06 158.305 112.612 159.144 111.764" stroke="#F5CC82" stroke-opacity="0.4" stroke-width="1.7008" stroke-miterlimit="10"/>
<path d="M241.462 125.079C241.93 126.156 241.949 127.428 242.417 128.505C242.884 129.582 243.492 130.607 243.959 131.684C244.427 132.761 243.969 134.238 244.436 135.315C244.904 136.393 245.266 137.522 245.733 138.599C246.2 139.676 247.454 140.424 247.921 141.501C248.389 142.578 248.49 143.817 248.962 144.894C249.43 145.971 249.502 147.22 249.97 148.302C250.437 149.378 252.231 149.898 252.698 150.975C253.166 152.052 253.498 153.191 253.966 154.268C254.433 155.345 254.857 156.446 255.325 157.523C255.793 158.6 255.339 160.073 255.807 161.155C256.275 162.231 257.735 162.889 258.207 163.971C258.675 165.048 258.492 166.406 258.959 167.483C259.427 168.56 259.403 169.852 259.87 170.929C260.338 172.006 262.174 172.506 262.642 173.583C263.11 174.66 262.396 176.242 262.868 177.324C263.336 178.401 263.62 179.559 264.093 180.641C264.56 181.718 266.343 182.242 266.811 183.319C267.279 184.396 267.683 185.507 268.151 186.583C268.619 187.661 268.942 188.804 269.409 189.881C269.877 190.958 269.737 192.298 270.209 193.374C270.677 194.452 271.318 195.462 271.785 196.539C272.253 197.616 272.677 198.717 273.145 199.794C273.613 200.871 273.41 202.238 273.878 203.316C274.345 204.393 274.865 205.451 275.333 206.532C275.801 207.609 277.734 208.067 278.201 209.149C278.669 210.226 277.618 211.951 278.085 213.033C278.553 214.11 280.038 214.758 280.505 215.84C280.973 216.921 280.51 218.394 280.978 219.471C281.445 220.548 282.737 221.282 283.204 222.359C283.672 223.436 283.339 224.856 283.812 225.938C284.284 227.02 284.636 228.144 285.103 229.221C285.571 230.299 287.162 230.904 287.634 231.981C288.102 233.058 288.911 233.992 289.384 235.073C289.851 236.151 289.35 237.647 289.818 238.724C290.285 239.801 290.194 241.121 290.661 242.198C291.128 243.275 292.377 244.023 292.849 245.105C293.317 246.182 293.279 247.478 293.746 248.56C294.214 249.642 294.609 250.752 295.076 251.829C295.544 252.906 296.055 253.969 296.522 255.051C296.99 256.128 298.72 256.671 299.188 257.753C299.655 258.83 299.024 260.379 299.491 261.456C299.959 262.533 301.487 263.162 301.955 264.244C302.422 265.321 302.904 266.398 303.377 267.475C303.844 268.552 303.883 269.815 304.35 270.897C304.818 271.974 305.126 273.122 305.594 274.204C306.062 275.286 306.187 276.511 306.654 277.587C307.122 278.664 307.073 279.965 307.546 281.043C308.013 282.12 308.823 283.058 309.291 284.135C309.758 285.212 310.284 286.27 310.751 287.347C311.219 288.425 312.005 289.373 312.472 290.45C312.94 291.527 313.846 292.423 314.318 293.5C314.79 294.577 314.395 296.025 314.863 297.103C315.33 298.18 316.743 298.861 317.21 299.938C317.678 301.015 318.584 301.911 319.051 302.988C319.519 304.065 318.348 305.843 318.815 306.925C319.283 308.001 320.951 308.574 321.418 309.65C321.886 310.727 322.218 311.867 322.691 312.944C323.158 314.02 323.346 315.221 323.814 316.299C324.281 317.376 324.773 318.448 325.241 319.525C325.708 320.602 326.407 321.583 326.874 322.665C327.342 323.747 328.35 324.595 328.817 325.672C329.285 326.75 329.381 327.989 329.849 329.066C330.316 330.142 331.044 331.134 331.511 332.215C331.979 333.297 331.791 334.651 332.264 335.733C332.736 336.814 332.403 338.23 332.871 339.311C333.338 340.393 335.31 340.832 335.777 341.909C336.245 342.986 335.358 344.644 335.83 345.721C336.298 346.798 337.353 347.632 337.821 348.709C338.289 349.786 339.638 350.497 340.106 351.573C340.573 352.65 340.535 353.947 341.002 355.028C341.47 356.106 341.884 357.211 342.357 358.288C342.824 359.365 343.634 360.304 344.101 361.381C344.569 362.458 345.312 363.416 345.784 364.493C346.251 365.57 345.23 367.286 345.702 368.363C346.17 369.439 346.844 370.436 347.312 371.512C347.779 372.59 349.433 373.166 349.9 374.248C350.368 375.325 350.3 376.636 350.768 377.713C351.235 378.79 351.496 379.962 351.963 381.039C352.431 382.116 353.708 382.855 354.176 383.932C354.643 385.009 353.891 386.61 354.359 387.687C354.826 388.764 355.766 389.646 356.234 390.723C356.701 391.8 357.439 392.767 357.906 393.844C358.374 394.921 357.901 396.403 358.369 397.48C358.837 398.557 360.148 399.282 360.615 400.359C361.083 401.436 361.825 402.403 362.293 403.48C362.76 404.557 363.444 405.549 363.912 406.626C364.38 407.702 363.743 409.251 364.216 410.333C364.688 411.415 366.202 412.044 366.669 413.126C367.137 414.203 367.161 415.471 367.628 416.552C368.096 417.634 367.812 419.03 368.279 420.107C368.747 421.184 370.555 421.699 371.022 422.776C371.489 423.851 370.829 425.417 371.301 426.492C371.769 427.571 373.143 428.268 373.61 429.348C374.078 430.431 374.68 431.451 375.153 432.526C375.625 433.605 374.618 435.309 375.09 436.388C375.558 437.463 376.748 438.242 377.216 439.317C377.683 440.396 378.835 441.188 379.303 442.263C379.77 443.338 378.989 444.951 379.457 446.03" stroke="#F5CC82" stroke-opacity="0.4" stroke-width="1.7008" stroke-miterlimit="10"/>
<path d="M194.712 19.1201C195.251 20.3687 195.671 21.4505 196.085 22.3941C196.63 23.6427 197.064 24.6864 197.478 25.6442C197.96 26.7498 198.375 27.7554 198.857 28.861C199.271 29.8141 199.782 30.8149 200.327 32.0587C200.741 33.0071 201.185 34.0889 201.73 35.347" stroke="#F5CC82" stroke-opacity="0.4" stroke-width="1.7008" stroke-miterlimit="10"/>
<path d="M437.004 57.2402C437.44 58.3408 439.261 58.9223 439.649 60.0328C440.045 61.148 440.167 62.3629 440.516 63.4876C440.869 64.6127 440.455 65.9563 440.764 67.0904C441.074 68.2297 441.51 69.3208 441.775 70.4648C442.041 71.6131 441.558 72.8905 441.784 74.0482C442.011 75.2065 444.076 76.0404 444.259 77.2033C444.442 78.3658 444.316 79.5954 444.455 80.7678C444.595 81.9355 444.939 83.1079 445.035 84.2803C445.131 85.4523 445.423 86.644 445.484 87.8207C445.541 88.9931 444.591 90.218 444.612 91.3951C444.63 92.5675 443.719 93.7305 443.693 94.9072C443.671 96.0796 444.856 97.2903 444.795 98.4674C444.73 99.6398 443.235 100.707 443.135 101.884C443.035 103.052 444.525 104.377 444.386 105.544C444.251 106.712 443.148 107.755 442.978 108.923C442.804 110.081 444.05 111.482 443.841 112.64C443.632 113.793 443.466 114.989 443.227 116.143C442.987 117.291 441.183 118.106 440.904 119.25C440.629 120.389 440.054 121.442 439.753 122.581C439.448 123.711 440.817 125.317 440.481 126.446C440.141 127.571 439.897 128.752 439.531 129.872C439.165 130.988 437.928 131.831 437.535 132.947C437.139 134.052 436.302 134.996 435.875 136.101C435.457 137.197 435.139 138.332 434.685 139.423C434.237 140.504 432.968 141.239 432.493 142.32C432.02 143.392 432.377 144.827 431.876 145.899C431.379 146.962 430.849 148.015 430.323 149.073C429.803 150.126 429.239 151.156 428.69 152.204C428.145 153.243 428.246 154.635 427.673 155.673C427.103 156.703 426.848 157.927 426.255 158.952C425.667 159.967 424.072 160.42 423.46 161.43C422.852 162.436 422.876 163.837 422.24 164.838C421.609 165.829 420.119 166.286 419.464 167.273C418.818 168.255 417.96 169.094 417.29 170.07C416.625 171.038 415.805 171.896 415.116 172.858C414.432 173.816 415.227 175.837 414.518 176.785C413.815 177.729 413.169 178.744 412.441 179.683C411.723 180.617 409.833 180.664 409.096 181.594C408.358 182.513 408.089 183.805 407.332 184.72C406.579 185.63 405.707 186.445 404.936 187.346C404.174 188.237 402.888 188.689 402.107 189.576C401.331 190.457 400.863 191.611 400.068 192.483C399.277 193.35 397.735 193.531 396.92 194.394C396.115 195.252 396.144 196.882 395.32 197.734C394.501 198.578 393.054 198.817 392.216 199.655C391.382 200.489 390.538 201.299 389.69 202.124C388.842 202.944 388.524 204.297 387.656 205.107C386.798 205.917 386.644 207.48 385.767 208.281C384.894 209.077 382.817 208.572 381.93 209.358C381.048 210.144 380.807 211.641 379.91 212.417C379.018 213.189 377.876 213.685 376.97 214.447C376.064 215.205 375.914 216.868 374.993 217.621C374.078 218.37 373.157 219.137 372.227 219.875C371.301 220.61 369.952 220.834 369.007 221.563C368.072 222.287 366.544 222.254 365.594 222.969C364.649 223.679 363.975 224.746 363.016 225.447C362.061 226.147 361.661 227.61 360.692 228.296C359.728 228.983 358.596 229.445 357.622 230.122C356.653 230.794 355.92 231.833 354.932 232.495C353.954 233.157 352.667 233.386 351.674 234.039C350.686 234.687 349.654 235.292 348.652 235.931C347.654 236.57 345.827 235.912 344.815 236.541C343.807 237.165 343.875 239.505 342.858 240.12C341.846 240.735 340.549 240.906 339.522 241.512C338.5 242.112 336.953 241.831 335.917 242.422C334.885 243.013 334.731 245.129 333.69 245.71C332.654 246.287 331.179 246.105 330.128 246.673C329.087 247.235 328.031 247.788 326.976 248.34C325.925 248.894 325.086 249.861 324.026 250.404C322.97 250.942 322.112 251.901 321.042 252.43C319.977 252.959 318.425 252.529 317.35 253.049C316.28 253.564 315.065 253.793 313.981 254.297C312.906 254.798 311.846 255.337 310.761 255.827C309.676 256.318 308.813 257.295 307.719 257.772C306.63 258.253 304.929 257.343 303.825 257.815C302.726 258.282 301.752 259.015 300.644 259.473C299.54 259.926 298.976 261.679 297.862 262.123C296.749 262.566 295.698 263.19 294.575 263.619C293.462 264.048 292.411 264.658 291.302 265.077C290.184 265.492 288.675 264.863 287.557 265.268C286.434 265.673 285.354 266.178 284.231 266.569C283.103 266.96 282.255 268.151 281.127 268.528C279.994 268.904 278.659 268.68 277.526 269.047C276.388 269.414 274.952 268.823 273.82 269.176C272.682 269.528 271.727 270.463 270.59 270.801C269.448 271.139 268.185 271.063 267.043 271.387C265.896 271.711 265.172 273.522 264.025 273.837C262.873 274.151 261.191 272.497 260.044 272.797C258.887 273.098 258.13 274.909 256.978 275.195C255.821 275.481 254.785 276.305 253.633 276.577C252.466 276.848 251.208 276.748 250.047 277.006C248.88 277.263 247.594 277.011 246.432 277.254C245.26 277.497 244.041 277.501 242.875 277.73C241.698 277.959 240.619 278.664 239.448 278.878C238.272 279.093 236.898 278.202 235.721 278.402C234.54 278.602 233.644 280.475 232.468 280.661C231.287 280.847 230.005 280.442 228.829 280.613C227.643 280.785 226.375 280.332 225.194 280.489C224.009 280.646 222.987 282.095 221.806 282.233C220.62 282.377 219.242 280.885 218.056 281.014C216.866 281.142 215.853 282.977 214.667 283.087C213.477 283.196 212.18 282.153 210.994 282.248C209.804 282.343 208.58 281.981 207.394 282.062C206.198 282.143 204.989 281.752 203.803 281.814C202.607 281.876 201.499 283.635 200.308 283.682C199.113 283.73 197.893 283.177 196.708 283.206C195.512 283.234 194.322 283.439 193.131 283.454C191.936 283.468 190.741 282.248 189.55 282.243C188.354 282.238 187.178 282.081 185.988 282.062C184.792 282.043 183.583 283.044 182.397 283.01C181.201 282.972 180.035 282.443 178.844 282.386C177.649 282.329 176.502 281.743 175.316 281.671C174.125 281.599 172.815 283.253 171.629 283.163C170.438 283.072 169.257 282.791 168.071 282.682C166.881 282.572 165.695 282.391 164.514 282.262C163.328 282.133 162.287 280.785 161.111 280.637C159.925 280.489 158.571 281.628 157.395 281.461C156.214 281.295 155.163 280.265 153.992 280.08C152.811 279.894 151.76 279.055 150.589 278.85C149.413 278.645 147.909 280.199 146.742 279.975C145.571 279.746 144.718 277.983 143.561 277.735C142.395 277.487 141.3 276.996 140.149 276.729C138.987 276.462 137.415 277.863 136.269 277.577C135.112 277.287 133.969 276.896 132.827 276.586C131.675 276.272 130.576 275.762 129.438 275.428C128.291 275.095 127.385 273.979 126.248 273.622C125.105 273.264 123.905 273.108 122.777 272.731C121.644 272.35 120.54 271.897 119.427 271.496C118.304 271.092 117.513 269.848 116.41 269.423C115.296 268.995 114.183 268.623 113.088 268.17C111.985 267.717 110.119 269.023 109.035 268.546C107.941 268.07 107.7 265.754 106.629 265.254C105.55 264.748 103.897 265.44 102.836 264.915C101.766 264.386 101.289 262.756 100.243 262.204C99.1873 261.651 97.6303 262.037 96.5989 261.46C95.5578 260.879 95.0758 259.382 94.0635 258.777C93.0416 258.172 92.1309 257.433 91.133 256.804C90.1255 256.17 88.3179 256.766 87.3396 256.109C86.3512 255.446 85.1032 255.136 84.1388 254.45C83.1701 253.764 82.9871 252.029 82.0423 251.319C81.0976 250.604 80.6444 249.313 79.7236 248.574C78.7984 247.831 77.2366 247.878 76.3402 247.111C75.4386 246.339 75.0098 245.067 74.1374 244.271C73.2602 243.475 72.4889 242.607 71.6452 241.788C70.7968 240.963 69.944 240.182 69.1243 239.334C68.305 238.485 66.266 238.747 65.4756 237.871C64.6851 236.994 65.0176 235.154 64.2611 234.254C63.4993 233.353 61.6582 233.31 60.93 232.381C60.2023 231.451 59.4602 230.503 58.766 229.55C58.0718 228.597 57.8548 227.296 57.1946 226.319C56.5344 225.347 56.0764 224.236 55.4497 223.24C54.8279 222.244 54.6205 221.01 54.0326 219.99C53.4448 218.97 53.4975 217.641 52.948 216.597C52.3985 215.558 51.4829 214.738 50.9717 213.68C50.461 212.623 49.9115 211.607 49.4391 210.526C48.9668 209.453 48.1327 208.538 47.6991 207.442" stroke="#F5CC82" stroke-opacity="0.4" stroke-width="1.7008" stroke-miterlimit="10"/>
<path d="M494.704 131.965C494.791 133.142 495.04 134.301 495.096 135.473C495.153 136.655 494.373 137.841 494.408 139.018C494.434 140.2 496.561 141.349 496.561 142.521C496.561 143.703 496.225 144.894 496.195 146.072C496.164 147.253 496.373 148.454 496.317 149.627C496.264 150.804 496.426 152.019 496.343 153.191C496.264 154.368 495.066 155.465 494.957 156.637C494.844 157.809 493.719 158.867 493.576 160.035C493.436 161.207 494.639 162.542 494.473 163.704C494.303 164.872 492.56 165.787 492.369 166.945C492.177 168.108 493.733 169.571 493.51 170.724C493.288 171.882 492.016 172.83 491.767 173.979C491.514 175.132 492.835 176.638 492.56 177.782C492.286 178.925 492.064 180.112 491.758 181.251C491.458 182.39 489.44 183.071 489.113 184.201C488.786 185.331 488.137 186.355 487.784 187.475C487.431 188.6 488.93 190.315 488.556 191.431C488.181 192.546 487.906 193.723 487.505 194.833C487.104 195.939 485.749 196.715 485.326 197.816C484.899 198.917 483.989 199.823 483.544 200.914C483.095 202.005 482.773 203.139 482.298 204.221C481.832 205.303 480.459 205.975 479.966 207.047C479.474 208.119 479.91 209.601 479.396 210.664C478.886 211.727 478.345 212.771 477.809 213.824C477.282 214.873 476.703 215.902 476.149 216.946C475.596 217.984 475.766 219.414 475.195 220.448C474.62 221.478 474.397 222.722 473.809 223.741C473.221 224.761 471.512 225.147 470.902 226.157C470.297 227.168 470.397 228.611 469.769 229.608C469.146 230.604 467.556 231.004 466.906 231.995C466.261 232.982 465.394 233.811 464.728 234.793C464.069 235.77 463.242 236.618 462.562 237.585C461.886 238.553 462.875 240.683 462.178 241.636C461.485 242.589 460.858 243.618 460.152 244.562C459.442 245.506 457.424 245.482 456.701 246.416C455.977 247.35 455.777 248.689 455.04 249.609C454.304 250.528 453.432 251.353 452.678 252.263C451.929 253.173 450.591 253.602 449.824 254.508C449.057 255.409 448.656 256.605 447.876 257.496C447.101 258.387 445.471 258.525 444.682 259.407C443.893 260.284 444.054 262.004 443.257 262.876C442.451 263.744 440.943 263.953 440.124 264.811C439.309 265.669 438.485 266.503 437.662 267.346C436.834 268.19 436.607 269.615 435.77 270.449C434.929 271.283 434.908 272.937 434.058 273.761C433.212 274.585 430.979 273.999 430.116 274.81C429.258 275.624 429.142 277.206 428.275 278.012C427.407 278.812 426.255 279.318 425.378 280.109C424.5 280.9 424.496 282.663 423.609 283.445C422.722 284.226 421.83 285.027 420.929 285.799C420.033 286.571 418.639 286.785 417.733 287.548C416.827 288.31 415.227 288.253 414.311 289.001C413.395 289.749 412.797 290.884 411.872 291.622C410.947 292.361 410.676 293.924 409.741 294.653C408.806 295.382 407.674 295.873 406.729 296.593C405.784 297.313 405.133 298.423 404.179 299.128C403.23 299.838 401.914 300.081 400.954 300.777C399.995 301.473 398.993 302.121 398.024 302.807C397.055 303.493 395.093 302.788 394.119 303.465C393.146 304.142 393.469 306.667 392.486 307.33C391.502 307.997 390.186 308.188 389.198 308.845C388.21 309.503 386.586 309.207 385.588 309.851C384.59 310.494 384.667 312.791 383.665 313.425C382.662 314.059 381.125 313.882 380.117 314.502C379.105 315.126 378.083 315.736 377.066 316.351C376.049 316.966 375.297 318.028 374.275 318.629C373.248 319.234 372.482 320.288 371.455 320.879C370.424 321.469 368.79 321.036 367.753 321.617C366.712 322.198 365.503 322.475 364.462 323.042C363.416 323.614 362.394 324.219 361.347 324.782C360.297 325.344 359.53 326.425 358.475 326.974C357.419 327.522 355.583 326.578 354.522 327.116C353.462 327.655 352.561 328.484 351.496 329.008C350.425 329.537 350.059 331.463 348.989 331.977C347.914 332.492 346.931 333.202 345.851 333.707C344.771 334.212 343.778 334.918 342.699 335.409C341.614 335.904 340.009 335.266 338.924 335.747C337.835 336.228 336.799 336.824 335.71 337.291C334.615 337.763 333.893 339.097 332.798 339.555C331.694 340.017 330.316 339.821 329.212 340.27C328.103 340.717 326.585 340.126 325.476 340.56C324.368 340.994 323.515 342.061 322.406 342.481C321.293 342.905 320.015 342.872 318.902 343.277C317.784 343.687 317.258 345.707 316.145 346.103C315.022 346.498 313.147 344.754 312.029 345.135C310.9 345.517 310.336 347.551 309.209 347.918C308.076 348.285 307.131 349.243 306.003 349.596C304.866 349.953 303.593 349.901 302.46 350.239C301.328 350.577 300.026 350.358 298.898 350.678C297.761 351.002 296.542 351.069 295.385 351.383C294.242 351.697 293.23 352.531 292.073 352.832C290.926 353.132 289.456 352.217 288.294 352.503C287.142 352.789 286.439 354.914 285.277 355.19C284.12 355.467 282.799 355.091 281.628 355.353C280.466 355.615 279.15 355.19 277.979 355.443C276.818 355.691 275.945 357.364 274.774 357.602C273.607 357.84 272.07 356.287 270.899 356.511C269.727 356.735 268.913 358.846 267.732 359.06C266.56 359.27 265.148 358.217 263.967 358.417C262.791 358.617 261.533 358.312 260.347 358.503C259.171 358.689 257.913 358.36 256.732 358.536C255.551 358.712 254.64 360.757 253.455 360.919C252.274 361.081 250.992 360.581 249.801 360.728C248.615 360.876 247.449 361.219 246.258 361.357C245.073 361.495 243.733 360.266 242.542 360.39C241.351 360.514 240.156 360.466 238.96 360.581C237.77 360.69 236.685 361.939 235.49 362.039C234.299 362.134 233.065 361.686 231.87 361.772C230.675 361.858 229.451 361.348 228.255 361.419C227.059 361.491 225.97 363.492 224.775 363.549C223.579 363.607 222.365 363.454 221.165 363.497C219.969 363.54 218.759 363.506 217.559 363.535C216.359 363.564 215.139 362.23 213.939 362.244C212.739 362.258 211.553 363.726 210.353 363.726C209.153 363.726 207.957 362.759 206.762 362.744C205.562 362.73 204.386 361.981 203.186 361.953C201.986 361.925 200.727 363.897 199.527 363.85C198.327 363.807 197.204 362.02 196.008 361.958C194.808 361.901 193.642 361.562 192.446 361.486C191.251 361.41 189.916 363.254 188.721 363.163C187.525 363.073 186.325 362.873 185.134 362.768C183.939 362.658 182.758 362.325 181.567 362.201C180.372 362.077 179.283 361.052 178.092 360.914C176.902 360.771 175.682 360.871 174.497 360.714C173.306 360.557 172.13 360.318 170.949 360.142C169.763 359.966 168.741 358.808 167.56 358.612C166.375 358.417 165.199 358.288 164.022 358.074C162.841 357.86 161.256 359.747 160.084 359.518C158.908 359.284 158.19 356.859 157.023 356.606C155.852 356.353 154.358 357.549 153.192 357.278C152.025 357.006 151.191 355.396 150.03 355.105C148.868 354.814 147.402 355.682 146.251 355.372C145.089 355.062 144.265 353.609 143.113 353.275C141.961 352.941 140.876 352.441 139.734 352.088C138.587 351.736 136.938 352.941 135.801 352.565C134.663 352.188 133.347 352.274 132.219 351.874C131.087 351.478 130.455 349.72 129.332 349.3C128.209 348.881 127.409 347.685 126.3 347.246C125.187 346.803 123.649 347.413 122.546 346.946C121.442 346.479 120.661 345.321 119.567 344.83C118.472 344.339 117.455 343.744 116.375 343.229C115.296 342.714 114.216 342.247 113.146 341.709C112.076 341.17 110.148 342.257 109.092 341.694C108.037 341.132 107.782 339.14 106.74 338.549C105.699 337.963 103.867 338.697 102.841 338.087C101.814 337.472 100.768 336.853 99.7608 336.214C98.7533 335.575 98.0883 334.389 97.0999 333.722C96.1072 333.059 95.2588 332.182 94.2853 331.491C93.3113 330.8 92.6559 329.695 91.6968 328.98C90.7425 328.265 90.2845 326.954 89.3493 326.216C88.4141 325.477 87.19 325.124 86.274 324.362C85.3633 323.6 84.4185 322.894 83.5265 322.108C82.6349 321.322 81.4444 320.869 80.5768 320.054C79.7091 319.244 78.3931 318.877 77.5451 318.038C76.7014 317.204 76.7882 315.474 75.9641 314.611C75.1444 313.754 73.3033 313.82 72.508 312.934C71.7127 312.052 70.4206 311.557 69.6498 310.651C68.8784 309.746 70.011 307.301 69.2641 306.372C68.5216 305.447 66.3863 305.59 65.6681 304.637C64.9548 303.694 64.4052 302.612 63.7159 301.64C63.0269 300.677 62.6992 299.462 62.0338 298.47C61.3736 297.489 60.6986 296.507 60.0623 295.502C59.4309 294.501 58.5201 293.657 57.9079 292.628C57.3052 291.613 56.0136 290.955 55.4305 289.911C54.8518 288.877 54.7699 287.552 54.2156 286.49C53.6661 285.442 52.8032 284.517 52.2781 283.44" stroke="#F5CC82" stroke-opacity="0.4" stroke-width="1.7008" stroke-miterlimit="10"/>
<path d="M518.145 219.628C517.84 220.772 516.855 221.734 516.528 222.869C516.197 224.007 517.182 225.537 516.833 226.667C516.489 227.801 514.58 228.454 514.214 229.579C513.848 230.703 513.469 231.819 513.085 232.938C512.697 234.058 512.684 235.302 512.279 236.417C511.874 237.532 512.227 238.924 511.804 240.034C511.377 241.14 511.303 242.393 510.858 243.494C510.418 244.595 509.961 245.705 509.503 246.801C509.046 247.893 507.839 248.689 507.368 249.775C506.893 250.862 506.666 252.063 506.174 253.14C505.681 254.217 504.984 255.213 504.47 256.28C503.96 257.353 503.568 258.487 503.045 259.549C502.518 260.612 501.267 261.317 500.722 262.371C500.182 263.424 500.448 264.897 499.886 265.945C499.328 266.988 497.289 267.246 496.718 268.285C496.142 269.324 495.415 270.258 494.822 271.287C494.234 272.316 495.454 274.37 494.848 275.395C494.247 276.415 493.698 277.487 493.083 278.497C492.464 279.508 490.159 279.498 489.523 280.504C488.891 281.505 490.098 283.663 489.449 284.659C488.8 285.655 486.307 285.46 485.645 286.441C484.982 287.428 484.777 288.701 484.102 289.677C483.427 290.655 483.836 292.375 483.148 293.347C482.459 294.315 481.989 295.453 481.287 296.411C480.59 297.369 479.518 298.074 478.803 299.023C478.093 299.971 476.415 300.2 475.687 301.143C474.96 302.082 473.905 302.759 473.164 303.693C472.428 304.622 473.016 306.6 472.262 307.52C471.513 308.44 470.724 309.345 469.961 310.256C469.199 311.166 468.575 312.209 467.8 313.11C467.024 314.011 465.638 314.402 464.854 315.293C464.07 316.184 463.22 317.022 462.422 317.904C461.625 318.786 461.211 320.02 460.4 320.892C459.59 321.764 457.468 321.421 456.648 322.284C455.825 323.146 456.352 325.272 455.524 326.12C454.696 326.973 454.138 328.103 453.297 328.946C452.456 329.785 451.628 330.662 450.774 331.491C449.929 332.32 448.456 332.544 447.593 333.364C446.73 334.184 445.863 334.999 444.991 335.813C444.12 336.623 443.266 337.457 442.386 338.258C441.501 339.058 440.878 340.145 439.989 340.936C439.1 341.727 437.1 341.279 436.206 342.061C435.309 342.842 434.746 343.996 433.844 344.768C432.938 345.535 432.986 347.427 432.064 348.185C431.148 348.943 429.996 349.438 429.07 350.186C428.145 350.934 426.53 350.849 425.595 351.587C424.66 352.326 424.072 353.494 423.132 354.223C422.192 354.952 420.944 355.29 419.994 356.01C419.045 356.729 417.767 357.011 416.808 357.716C415.849 358.426 415.179 359.503 414.21 360.199C413.246 360.895 412.528 361.934 411.554 362.624C410.581 363.311 409.12 363.311 408.137 363.987C407.158 364.664 407.028 366.566 406.04 367.228C405.052 367.895 403.264 367.39 402.271 368.048C401.273 368.705 401.249 370.821 400.246 371.465C399.244 372.108 397.229 371.203 396.217 371.836C395.204 372.47 394.713 373.914 393.696 374.538C392.679 375.163 391.295 375.196 390.273 375.806C389.251 376.421 388.919 378.184 387.887 378.785C386.856 379.385 384.865 378.356 383.829 378.947C382.793 379.538 382.744 381.84 381.699 382.421C380.658 383.002 378.739 382.035 377.693 382.602C376.642 383.169 375.977 384.427 374.921 384.985C373.866 385.542 373.297 387.024 372.237 387.573C371.176 388.12 369.34 387.182 368.27 387.72C367.204 388.259 366.274 389.055 365.199 389.579C364.124 390.103 362.732 389.955 361.652 390.47C360.572 390.984 359.719 391.943 358.634 392.447C357.55 392.948 356.219 392.9 355.13 393.391C354.041 393.882 353.491 395.55 352.397 396.031C351.303 396.513 349.818 396.098 348.719 396.565C347.62 397.032 346.676 397.842 345.567 398.3C344.463 398.757 343.147 398.695 342.038 399.138C340.93 399.582 339.773 399.882 338.66 400.315C337.546 400.749 336.727 401.922 335.609 402.341C334.49 402.76 333.083 402.398 331.96 402.808C330.837 403.218 330.032 404.476 328.904 404.872C327.776 405.267 326.354 404.819 325.226 405.205C324.093 405.591 323.467 407.44 322.329 407.812C321.192 408.184 319.722 407.536 318.579 407.898C317.437 408.26 316.198 408.269 315.051 408.617C313.904 408.965 312.843 409.547 311.696 409.885C310.549 410.223 309.604 411.243 308.452 411.567C307.3 411.891 306.278 412.687 305.122 412.997C303.965 413.306 302.721 413.292 301.56 413.588C300.398 413.888 299.087 413.578 297.925 413.864C296.763 414.15 295.872 415.546 294.705 415.818C293.539 416.09 292.146 415.394 290.979 415.651C289.808 415.908 288.892 417.324 287.721 417.567C286.55 417.815 285.258 417.524 284.086 417.758C282.91 417.991 281.488 416.924 280.313 417.143C279.136 417.362 278.119 418.411 276.938 418.615C275.758 418.821 274.726 419.893 273.545 420.083C272.364 420.274 270.99 419.283 269.81 419.459C268.624 419.636 267.351 419.125 266.165 419.292C264.98 419.454 264.078 421.727 262.893 421.88C261.702 422.028 260.295 420.383 259.109 420.522C257.918 420.655 256.863 421.995 255.672 422.118C254.481 422.238 253.334 422.905 252.144 423.009C250.949 423.116 249.738 423.176 248.548 423.266C247.353 423.357 246.08 422.452 244.885 422.528C243.689 422.604 242.475 422.357 241.279 422.419C240.084 422.481 238.884 422.304 237.684 422.347C236.488 422.394 235.307 422.776 234.107 422.804C232.907 422.833 231.726 423.735 230.53 423.748C229.33 423.761 228.125 423.894 226.93 423.894C225.73 423.894 224.529 423.357 223.334 423.339C222.134 423.318 220.972 422.061 219.772 422.032C218.577 421.999 217.338 423.292 216.138 423.245C214.942 423.193 213.785 422.299 212.59 422.233C211.395 422.166 210.146 422.962 208.951 422.881C207.756 422.8 206.584 422.39 205.394 422.295C204.198 422.194 203.104 421.089 201.914 420.974C200.723 420.86 199.407 421.97 198.217 421.837C197.026 421.704 196.014 420.145 194.828 419.998C193.642 419.85 192.345 420.574 191.16 420.408C189.974 420.241 188.721 420.517 187.54 420.331C186.359 420.145 185.39 418.716 184.209 418.516C183.028 418.315 181.674 419.135 180.498 418.916C179.322 418.697 178.222 418.106 177.052 417.867C175.88 417.629 174.622 417.791 173.456 417.534C172.284 417.281 171.026 417.415 169.86 417.143C168.693 416.871 167.724 415.818 166.563 415.527C165.401 415.237 163.989 415.899 162.832 415.594C161.675 415.284 160.441 415.213 159.294 414.889C158.142 414.565 157.487 412.577 156.344 412.234C155.202 411.891 153.848 412.22 152.71 411.858C151.572 411.496 150.469 411.033 149.336 410.652C148.203 410.271 147.302 409.256 146.179 408.856C145.051 408.455 143.422 409.428 142.298 409.013C141.18 408.598 140.11 408.031 138.997 407.593C137.883 407.159 136.577 407.169 135.468 406.716C134.365 406.263 134.109 403.842 133.01 403.37C131.911 402.898 130.552 403.051 129.463 402.56C128.373 402.069 127.033 402.126 125.953 401.622C124.874 401.111 124.271 399.648 123.201 399.119C122.131 398.595 120.825 398.548 119.765 397.999C118.699 397.456 116.993 398.104 115.938 397.542" stroke="#F5CC82" stroke-opacity="0.4" stroke-width="1.7008" stroke-miterlimit="10"/>
<path d="M509.046 297.827C508.488 298.871 507.899 299.909 507.324 300.948C506.749 301.987 504.888 302.316 504.3 303.345C503.716 304.375 503.516 305.614 502.919 306.638C502.317 307.658 502.901 309.378 502.287 310.394C501.672 311.409 499.868 311.709 499.236 312.715C498.604 313.72 498.692 315.169 498.051 316.165C497.41 317.161 496.352 317.9 495.698 318.886C495.044 319.872 495.136 321.359 494.46 322.341C493.789 323.318 491.65 323.304 490.97 324.271C490.286 325.239 491 327.183 490.303 328.145C489.61 329.108 489.026 330.161 488.32 331.114C487.61 332.068 485.701 332.139 484.982 333.083C484.263 334.026 483.775 335.137 483.039 336.071C482.307 337.005 481.056 337.524 480.311 338.449C479.566 339.373 480.084 341.303 479.33 342.218C478.572 343.133 477.648 343.924 476.881 344.83C476.114 345.735 474.319 345.783 473.543 346.679C472.763 347.575 472.354 348.781 471.565 349.667C470.772 350.554 470.907 352.264 470.109 353.141C469.308 354.018 467.704 354.175 466.889 355.038C466.074 355.905 465.198 356.706 464.37 357.563C463.547 358.421 462.78 359.327 461.947 360.17C461.115 361.019 459.703 361.29 458.858 362.124C458.017 362.958 457.869 364.488 457.019 365.312C456.165 366.137 454.644 366.28 453.781 367.1C452.918 367.914 452.404 369.087 451.532 369.892C450.661 370.698 449.859 371.579 448.97 372.375C448.09 373.171 447.336 374.11 446.443 374.896C445.549 375.682 445.14 377.022 444.237 377.794C443.335 378.57 442.019 378.875 441.109 379.638C440.198 380.4 439.509 381.43 438.59 382.187C437.67 382.94 436.023 382.821 435.099 383.564C434.171 384.308 434.184 386.219 433.243 386.948C432.304 387.682 431.456 388.545 430.511 389.264C429.566 389.984 428.496 390.565 427.542 391.275C426.587 391.985 425.638 392.724 424.674 393.425C423.71 394.125 421.893 393.663 420.924 394.354C419.95 395.045 419.502 396.456 418.523 397.132C417.545 397.809 415.911 397.552 414.923 398.219C413.935 398.886 413.968 401.049 412.976 401.707C411.983 402.365 410.821 402.789 409.818 403.437C408.816 404.081 407.399 404.095 406.391 404.729C405.379 405.363 403.904 405.244 402.887 405.863C401.87 406.482 401.629 408.36 400.602 408.97C399.576 409.58 397.889 409.085 396.857 409.685C395.826 410.285 395.508 412.101 394.471 412.687C393.435 413.273 391.888 412.973 390.841 413.55C389.796 414.126 389.024 415.194 387.974 415.756C386.923 416.319 385.651 416.476 384.595 417.029C383.534 417.581 382.657 418.473 381.592 419.011C380.527 419.55 379.727 420.617 378.656 421.146C377.587 421.675 376.092 421.356 375.012 421.87C373.937 422.385 372.761 422.686 371.677 423.189C370.592 423.692 369.489 424.139 368.399 424.629C367.31 425.12 366.587 426.419 365.493 426.892C364.398 427.369 363.401 428.092 362.302 428.552C361.203 429.021 360.118 429.537 359.01 429.993C357.906 430.444 356.58 430.371 355.467 430.814C354.358 431.253 353.124 431.386 352.006 431.816C350.892 432.242 349.823 432.792 348.704 433.21C347.581 433.622 346.612 434.444 345.485 434.844C344.357 435.244 343.108 435.3 341.975 435.687C340.843 436.074 339.493 435.812 338.361 436.181C337.228 436.551 336.399 437.859 335.256 438.216C334.119 438.577 332.996 439.007 331.848 439.351C330.706 439.7 329.289 439.145 328.142 439.48C326.995 439.811 326.083 440.955 324.932 441.278C323.78 441.596 322.348 440.899 321.191 441.205C320.035 441.51 319.244 443.209 318.087 443.501C316.925 443.794 315.465 442.878 314.303 443.153C313.142 443.428 312.259 444.912 311.093 445.174C309.927 445.437 308.64 445.192 307.468 445.441C306.297 445.691 305.01 445.368 303.834 445.605C302.663 445.837 301.703 447.196 300.528 447.415C299.351 447.635 297.93 446.512 296.749 446.714C295.568 446.921 294.396 447.11 293.215 447.299C292.034 447.484 290.907 448 289.726 448.172C288.54 448.344 287.451 449.187 286.265 449.346C285.079 449.501 283.922 449.97 282.736 450.112C281.551 450.254 280.346 450.387 279.16 450.516C277.969 450.641 276.707 450.103 275.516 450.211C274.326 450.323 273.149 450.658 271.959 450.757C270.768 450.852 269.553 450.761 268.363 450.834C267.168 450.912 265.977 451.101 264.782 451.165C263.586 451.226 262.362 450.611 261.166 450.654C259.971 450.701 258.8 451.51 257.604 451.535C256.409 451.565 255.189 450.189 253.994 450.202C252.799 450.215 251.613 450.069 250.418 450.064C249.222 450.06 248.012 451.798 246.817 451.776C245.622 451.755 244.412 451.793 243.217 451.755C242.021 451.716 240.893 450.03 239.698 449.978C238.502 449.927 237.211 451.686 236.015 451.613C234.82 451.54 233.755 449.634 232.559 449.544C231.369 449.454 230.144 449.815 228.954 449.712C227.763 449.604 226.462 450.598 225.271 450.473C224.081 450.348 222.856 450.456 221.666 450.31C220.48 450.168 219.328 449.66 218.142 449.501C216.957 449.346 215.915 448.185 214.734 448.009C213.554 447.832 212.435 447.312 211.254 447.118C210.073 446.925 208.652 448.129 207.475 447.918C206.299 447.708 205.118 447.462 203.947 447.235C202.776 447.002 201.556 446.933 200.39 446.684C199.223 446.439 198.192 445.536 197.026 445.273C195.859 445.011 194.712 444.68 193.55 444.392C192.389 444.112 191.116 444.25 189.959 443.949C188.802 443.648 188.05 441.897 186.898 441.575C185.746 441.256 184.166 442.426 183.018 442.091C181.871 441.755 180.618 441.729 179.475 441.377C178.333 441.024 177.171 440.684 176.034 440.315C174.901 439.94 173.995 438.874 172.862 438.482C171.734 438.091 170.602 437.687 169.474 437.282" stroke="#F5CC82" stroke-opacity="0.4" stroke-width="1.7008" stroke-miterlimit="10"/>
<path d="M368.466 46.2272C368.915 47.3136 369.035 48.5195 369.406 49.6201C369.782 50.7306 370.462 51.755 370.761 52.8797C371.064 54.0095 371.946 55.0435 372.178 56.187C372.409 57.3311 371.195 58.7224 371.354 59.8806C371.508 61.0341 373.05 62.0632 373.137 63.2309C373.224 64.3934 373.267 65.6088 373.282 66.7812C373.296 67.9442 372.809 69.1402 372.756 70.3126C372.708 71.4704 372.231 72.6192 372.115 73.7864C372.004 74.9399 372.684 76.2219 372.51 77.3845C372.337 78.5332 370.52 79.4054 370.288 80.5585C370.062 81.6973 370.707 83.0177 370.423 84.1612C370.144 85.2859 369.247 86.2484 368.915 87.3783C368.582 88.4883 369.522 90.0181 369.141 91.1333C368.765 92.2296 367.117 92.8919 366.693 93.9929C366.273 95.0746 365.883 96.1609 365.415 97.243C364.953 98.3105 364.967 99.5921 364.461 100.655C363.96 101.703 362.832 102.447 362.287 103.495C361.752 104.529 361.776 105.854 361.202 106.884C360.634 107.899 359.78 108.761 359.173 109.772C358.576 110.768 358.007 111.788 357.366 112.779C356.739 113.76 356.011 114.68 355.351 115.652C354.695 116.615 354.044 117.582 353.355 118.54C352.676 119.484 351.611 120.151 350.897 121.09C350.193 122.014 349.697 123.087 348.964 124.007C348.236 124.912 348.391 126.537 347.634 127.438C346.887 128.329 345.932 129.077 345.156 129.958C344.385 130.831 342.746 130.945 341.946 131.813C341.156 132.67 340.471 133.614 339.652 134.462C338.842 135.306 338.919 137.002 338.085 137.836C337.261 138.661 335.328 138.389 334.475 139.209C333.632 140.019 333.41 141.467 332.542 142.273C331.684 143.064 330.204 143.188 329.322 143.974C328.45 144.751 328.074 146.086 327.177 146.858C326.286 147.62 325.476 148.478 324.565 149.231C323.659 149.974 322.41 150.303 321.485 151.041C320.569 151.771 320.434 153.496 319.494 154.215C318.569 154.926 316.838 154.611 315.893 155.312C314.953 156.008 314.611 157.513 313.652 158.2C312.703 158.881 311.228 158.848 310.254 159.52C309.29 160.187 308.075 160.487 307.092 161.14C306.118 161.793 305.217 162.546 304.224 163.184C303.236 163.823 302.547 164.909 301.539 165.534C300.542 166.153 299.606 166.887 298.594 167.497C297.587 168.102 296.806 169.103 295.784 169.699C294.772 170.29 293.837 171.043 292.81 171.62C291.788 172.196 290.352 172.063 289.316 172.625C288.279 173.187 287.079 173.435 286.028 173.983C284.982 174.531 284.428 176.013 283.372 176.552C282.322 177.081 281.102 177.314 280.037 177.834C278.981 178.349 277.762 178.553 276.692 179.059C275.621 179.559 274.407 179.745 273.322 180.236C272.243 180.722 271.023 180.889 269.934 181.365C268.849 181.837 267.75 182.252 266.652 182.709C265.553 183.166 264.935 184.773 263.827 185.216C262.723 185.659 261.682 186.264 260.583 186.688C259.474 187.117 257.937 186.421 256.828 186.826C255.715 187.236 254.669 187.804 253.555 188.199C252.437 188.594 251.535 189.6 250.417 189.977C249.294 190.358 248.32 191.201 247.197 191.564C246.07 191.926 244.667 191.459 243.539 191.807C242.401 192.155 241.428 193.031 240.295 193.36C239.153 193.689 237.745 193.074 236.608 193.384C235.46 193.699 234.458 194.499 233.315 194.79C232.164 195.085 231.142 195.871 229.994 196.148C228.843 196.429 227.445 195.695 226.297 195.953C225.141 196.215 223.935 196.21 222.779 196.453C221.617 196.696 220.702 198.107 219.545 198.331C218.378 198.559 217.25 198.998 216.088 199.208C214.917 199.417 213.751 199.67 212.589 199.86C211.418 200.051 210.015 198.731 208.849 198.903C207.673 199.074 206.689 200.585 205.523 200.733C204.347 200.885 203.151 200.923 201.98 201.056C200.799 201.185 199.642 201.59 198.471 201.7C197.29 201.81 196.042 201.185 194.865 201.276C193.68 201.366 192.494 201.333 191.318 201.4C190.132 201.466 188.971 201.957 187.795 202.005C186.609 202.053 185.428 202.367 184.252 202.391C183.066 202.415 181.871 202.625 180.695 202.625C179.509 202.625 178.328 201.542 177.157 201.524C175.971 201.5 174.785 201.662 173.614 201.614C172.428 201.567 171.281 201.004 170.11 200.933C168.924 200.861 167.641 202.162 166.475 202.067C165.285 201.967 164.234 200.451 163.062 200.328C161.877 200.204 160.551 201.266 159.385 201.114C158.204 200.961 157.153 199.913 155.987 199.732C154.811 199.551 153.471 200.299 152.314 200.089C151.143 199.879 150.178 198.617 149.031 198.374C147.865 198.131 146.448 198.998 145.306 198.726C144.149 198.45 143.334 196.863 142.201 196.558C141.054 196.253 139.709 196.658 138.586 196.32C137.449 195.976 136.354 195.509 135.246 195.138C134.118 194.761 133.11 194.099 132.011 193.689C130.898 193.274 129.611 193.317 128.531 192.869C127.437 192.417 126.449 191.725 125.389 191.239C124.309 190.749 123.528 189.695 122.487 189.166C121.431 188.633 120.144 188.557 119.127 187.985C118.091 187.408 117.532 186.097 116.539 185.488C115.531 184.863 114.442 184.439 113.473 183.777C112.495 183.109 110.89 183.31 109.96 182.609C109.02 181.894 108.099 181.127 107.207 180.379C106.306 179.621 105.424 178.816 104.571 178.015C103.713 177.209 103.303 175.961 102.498 175.117C101.688 174.269 101.303 173.078 100.546 172.192C99.7891 171.295 97.8708 171.3 97.1718 170.366C96.4681 169.432 96.9261 167.688 96.2851 166.716C95.644 165.739 94.8387 164.895 94.2604 163.88C93.6822 162.87 93.6578 161.612 93.1471 160.559C92.6359 159.515 91.0357 158.962 90.5926 157.88C90.1441 156.794 90.0234 155.578 89.6478 154.473C89.2717 153.363 88.3701 152.385 88.0668 151.256C87.7631 150.127 88.144 148.821 87.9126 147.672C87.6812 146.529 87.0401 145.438 86.8859 144.275C86.7316 143.121 87.7387 141.849 87.652 140.681C87.5652 139.518 86.6301 138.408 86.6157 137.236C86.6013 136.073 86.9051 134.905 86.9582 133.733C87.0061 132.575 86.4423 131.35 86.5529 130.183C86.6641 129.029 87.7966 127.986 87.9701 126.823C88.144 125.674 88.2259 124.521 88.4573 123.368C88.6834 122.229 88.5244 121.004 88.8137 119.861C89.0935 118.735 89.7825 117.711 90.1202 116.586C90.4527 115.476 89.8021 114.037 90.1873 112.922C90.5634 111.825 91.2288 110.791 91.6576 109.695C92.0768 108.614 93.3253 107.851 93.7929 106.765C94.2557 105.697 94.4583 104.515 94.969 103.453C95.4702 102.404 96.4489 101.589 96.9888 100.54C97.5235 99.5065 97.8033 98.3483 98.3815 97.3192C98.9502 96.3042 99.3843 95.2126 99.9965 94.2024C100.594 93.2063 101.293 92.2627 101.929 91.2714C102.556 90.2899 103.178 89.3033 103.843 88.3266C104.498 87.3636 104.503 85.9388 105.192 84.981C105.872 84.0374 106.436 82.9747 107.149 82.0358C107.853 81.1111 108.807 80.349 109.545 79.4338C110.273 78.5285 111.999 78.4141 112.755 77.5135C113.502 76.6219 113.975 75.502 114.751 74.6208C115.522 73.7486 115.58 72.2329 116.375 71.3655C117.166 70.5079 118.033 69.6976 118.848 68.8495C119.658 68.0061 120.501 67.1769 121.335 66.3425C122.159 65.5181 123.866 65.5658 124.719 64.7508C125.562 63.941 126.145 62.8688 127.013 62.068C127.871 61.277 127.958 59.6328 128.84 58.8462C129.712 58.0695 131.375 58.1555 132.272 57.3883C133.164 56.6257 133.597 55.3295 134.508 54.5764C135.414 53.8332 136.586 53.3992 137.511 52.6608C138.427 51.9314 138.885 50.6067 139.825 49.8872C140.75 49.1771 142.596 49.6442 143.541 48.9436C144.481 48.2477 144.573 46.4035 145.532 45.7171C146.481 45.0359 147.378 44.2445 148.352 43.5775C149.315 42.9104 151.003 43.2678 151.981 42.615C152.955 41.9621 153.798 41.1135 154.791 40.4749C155.779 39.8366 157.067 39.6745 158.069 39.0453C159.067 38.426 159.346 36.6532 160.363 36.0429C161.371 35.4378 162.479 34.9756 163.506 34.3798C164.518 33.7889 166.104 34.1702 167.131 33.5935C168.153 33.0169 168.977 32.0924 170.018 31.53C171.054 30.9677 171.594 29.4903 172.645 28.9423C173.691 28.3943 175.161 28.6516 176.221 28.1179C177.272 27.5889 178.366 27.1266 179.432 26.6072C180.487 26.0925 181.523 25.5254 182.594 25.0202C183.664 24.5198 185.023 24.639 186.103 24.1529C187.182 23.6668 187.92 22.4278 189.009 21.956C190.094 21.4842 191.497 21.7463 192.596 21.2888C193.694 20.8313 194.624 19.9877 195.733 19.5445C196.837 19.1013 197.898 18.5819 199.001 18.1578C200.11 17.7289 201.156 17.1522 202.26 16.7472C203.373 16.3373 204.274 15.3461 205.388 14.9505C206.506 14.555 207.803 14.6551 208.921 14.2786C210.044 13.8973 211.081 13.2445 212.204 12.887C213.331 12.5248 214.748 13.0681 215.881 12.725C217.019 12.3771 217.785 10.8283 218.918 10.4995C220.06 10.1706 221.169 9.70836 222.306 9.39862C223.453 9.08406 224.644 8.92205 225.787 8.62658C226.939 8.33111 228.086 8.01182 229.233 7.73541C230.385 7.45422 231.821 8.35494 232.973 8.09758C234.13 7.83549 235.123 6.84424 236.275 6.6012C237.437 6.35816 238.787 7.05395 239.943 6.82996C241.11 6.6012 241.987 4.8856 243.149 4.6759C244.32 4.46623 245.534 4.49479 246.696 4.30418C247.868 4.11357 249.14 4.55676 250.306 4.3852C251.482 4.21365 252.75 4.78552 253.917 4.63779C255.093 4.48529 256.115 3.11277 257.286 2.98413C258.467 2.85545 259.754 3.80378 260.925 3.69419C262.106 3.58457 263.181 2.29312 264.357 2.20254C265.543 2.11201 266.781 2.88878 267.958 2.8173C269.143 2.7506 270.3 2.21209 271.476 2.16444C272.662 2.11678 273.858 2.46468 275.034 2.44085C276.219 2.41702 277.4 2.07386 278.576 2.07386C279.762 2.07386 280.958 1.58301 282.134 1.60211C283.319 1.62593 284.486 2.45036 285.657 2.49323C286.843 2.54093 288.009 2.7887 289.181 2.86022C290.366 2.9317 291.533 3.06034 292.699 3.15569C293.89 3.25577 295.143 2.61714 296.314 2.74105C297.5 2.86495 298.72 2.78397 299.886 2.9317C301.067 3.08421 302.267 3.19857 303.429 3.37967C304.605 3.56074 305.709 4.22315 306.866 4.42808C308.037 4.63779 309.15 5.13337 310.297 5.37168C311.464 5.61472 312.645 5.75291 313.787 6.02455C314.944 6.30096 316.192 6.22948 317.325 6.52972C318.472 6.83473 319.533 7.44949 320.656 7.78784C321.793 8.13096 322.738 9.0269 323.847 9.39862C324.974 9.77507 326.368 9.38907 327.462 9.79417C328.575 10.2088 329.708 10.5805 330.788 11.0285C331.882 11.4812 332.643 12.6678 333.704 13.1539C334.783 13.6448 336.162 13.5113 337.203 14.0355C338.259 14.5693 338.876 15.8941 339.893 16.466C340.929 17.0426 342.577 16.5899 343.571 17.2046C344.578 17.8289 344.997 19.3444 345.966 20.0021C346.945 20.6692 348.531 20.512 349.461 21.2173C350.4 21.9321 351.066 23.0139 351.958 23.7621C352.859 24.5198 353.413 25.6588 354.261 26.4547C355.119 27.2601 356.662 27.4078 357.467 28.2513C358.277 29.0996 358.209 30.739 358.961 31.6254C359.718 32.5213 360.436 33.4172 361.135 34.3512C361.839 35.2853 362.735 36.0717 363.376 37.0484C364.018 38.0256 365.131 38.7356 365.709 39.7459C366.287 40.7561 367.093 41.6997 367.603 42.753C368.11 43.8016 368.023 45.1451 368.466 46.2272Z" stroke="#F5CC82" stroke-opacity="0.4" stroke-width="1.7008" stroke-miterlimit="10"/>
<path d="M509.281 401.169L506.941 403.89L504.317 406.383L502.696 409.661L498.343 410.734L496.216 413.584L495.855 417.959L491.366 418.773L490.512 422.795L486.991 424.41L485.34 427.748L482.211 429.692L479.226 431.739L477.378 434.939L475.609 438.259L473.334 441.084L469.207 441.863L467.159 444.938L463.738 446.443L460.814 448.499L459.707 452.791L456.648 454.727L453.541 456.576L449.981 457.797L448.081 461.264L444.961 463.074L441.305 464.098L437.84 465.358L434.751 467.143L432.742 470.631L429.358 471.977L427.04 475.074L423.295 475.792L420.735 478.557L417.419 479.998L413.626 480.523L410.435 482.144L406.675 482.622L404.612 486.561L401.229 487.813L396.924 487.004L394.634 490.69L391.019 491.374L387.607 492.496L383.958 493.012L380.936 495.133L377.268 495.533L374.694 499.042L371.088 499.636L366.842 498.148L363.603 499.765L360.349 501.382L357.052 502.904L353.331 502.861L349.832 503.618L346.665 505.79L342.717 504.573L339.367 506.014L335.983 507.36L332.214 506.68L329.12 509.807L325.254 508.379L321.784 509.411L318.173 509.433H314.573L311.045 510.074L307.526 510.891L304.012 511.979L300.31 510.306L296.825 512.108L293.277 513.398L289.614 510.822L286.067 513.028L282.471 510.934L278.899 511.213L275.269 513.046L271.659 513.243L268.131 511.734L264.525 511.975L260.915 512.031L257.43 510.684L253.632 512.555L250.08 511.859L246.677 510.078L242.951 510.792L239.553 509.205L236.26 507.179L232.395 508.461L229.233 505.928L225.333 507.093L221.93 505.85L218.778 503.605L215.23 503.089L211.182 504.41L208.289 501.39L204.405 501.937L201.213 500.083L198.105 498.062L194.104 498.763L190.822 497.262L187.019 497.214L183.538 496.234L180.511 494.075L176.829 493.58L173.98 491.077L170.905 489.163L168.201 486.475L163.626 487.817L160.787 485.43L157.461 484.05L154.83 481.327L150.969 480.953L148.607 477.8L144.5 477.792L142.09 474.798L139.135 472.773L135.53 471.797L132.874 469.289L130.474 466.425L127.003 465.199L124.477 462.567L120.246 462.352L118.019 459.303L115.43 456.769L112.398 454.856L108.542 453.957L107.255 449.845L103.857 448.353L101.081 446.095L99.1816 442.843L95.3111 441.82L91.9757 440.143L89.5175 437.515L87.194 434.758L85.5311 431.36L82.75 429.089L81.0631 425.769L78.0698 423.696L75.5393 421.18L72.7577 418.878L70.5793 416.043L67.5812 413.903L65.8555 410.696L64.3325 407.355L61.4211 405.115L59.6667 401.975L56.7553 399.696L55.2562 396.384L52.1038 394.24L50.4793 391.028L49.5249 387.387L46.18 385.309L44.4251 382.197L42.3622 379.276L40.5018 376.226L40.0342 372.39L37.7688 369.588L36.2938 366.342L34.1923 363.43L31.6231 360.743L30.6302 357.254L28.5142 354.314L27.6755 350.778L26.2632 347.513L25.7667 343.858L23.911 340.784L22.277 337.615L22.0408 333.903L19.303 331.134L19.6307 327.25L16.8206 324.462L14.6419 321.426L15.683 317.366L12.3717 314.65L13.138 310.723L12.468 307.23L10.781 304.003L9.26268 300.71L10.4292 296.793L7.34428 293.838L8.83371 289.897L6.06694 286.823L4.72215 283.44L7.22379 279.413L3.71478 276.368L5.78256 272.484L2.93871 269.272L3.67621 265.602L2.63023 262.137L2.55309 258.573L4.06662 254.894L2.6206 251.444L3.68584 247.841L1.8349 244.371L3.51715 240.778L1.97469 237.261L3.22793 233.716L3.14117 230.179L1.35773 226.596L2.28318 223.069L2.15785 219.509L3.51715 216.04L2.21088 212.39L4.85232 209.053L5.0885 205.532L2.99658 201.734L3.58461 198.221L4.93424 194.819L4.98244 191.235L4.77518 187.599L6.06215 184.211L6.71768 180.713L6.37063 177.01L8.34686 173.793L10.9063 170.738L8.91084 166.607L10.4002 163.304L12.8874 160.292L14.2949 157.013L15.2493 153.606L15.0805 149.841L15.1769 146.129L18.7101 143.57L19.4717 140.086L19.4331 136.288L21.9396 133.438L22.8698 129.992L24.4219 126.795L25.786 123.521L25.4197 119.465L27.661 116.568L28.9673 113.236L30.4133 109.972L33.8741 107.728L33.2571 103.391L35.084 100.307L38.7665 98.2679L38.6894 94.1267L40.8343 91.2387L43.0563 88.4079L44.782 85.2721L48.368 83.3277L48.4451 79.1246L50.4409 76.1506L53.1401 73.6582L56.866 71.9332L59.1172 69.1643" stroke="#F5CC82" stroke-opacity="0.4" stroke-width="1.7008" stroke-miterlimit="10"/>
</svg>
