<svg width="140" height="49" viewBox="0 0 140 49" fill="none" xmlns="http://www.w3.org/2000/svg">
<g clip-path="url(#clip0_1_468)">
<g clip-path="url(#clip1_1_468)">
<path d="M30.8226 38.3283C30.4839 38.5544 30.5968 38.7805 30.9355 38.8936C31.2742 39.0066 31.7258 38.7805 32.1774 38.4413C32.4033 38.2152 32.6291 37.9891 32.9678 37.763C33.1936 37.5368 33.3065 37.1976 33.3065 36.9715C33.1936 37.0846 32.9678 37.0846 32.8549 37.1976C32.6291 37.3107 32.5162 37.3107 32.4033 37.4238C31.8387 37.5368 31.2742 37.876 30.8226 38.3283ZM38.2742 37.6499C38.8387 37.7629 38.7258 37.9891 38.0484 38.4413C37.7097 38.6675 37.371 38.7805 37.1452 38.8936C36.9194 39.0066 36.6936 39.1197 36.5807 39.2328C36.3549 39.3458 36.242 39.4589 36.0162 39.572C35.7903 39.685 35.5645 39.7981 35.2258 40.0242C34.2097 40.4765 33.5323 40.9287 32.9678 41.1548C32.4033 41.381 31.9516 41.494 31.2742 41.6071C30.9355 41.6071 30.4839 41.6071 30.0323 41.494C29.5807 41.381 29.3549 41.1548 29.1291 40.9287C29.0162 40.7026 28.9033 40.5895 28.9033 40.3634C28.9033 40.1373 28.9033 40.0242 29.0162 39.7981C29.242 39.2328 29.5807 38.7805 30.0323 38.3283C30.4839 37.876 31.0484 37.4238 31.8387 37.0846C32.0645 36.9715 32.2904 36.8584 32.742 36.7454C33.0807 36.6323 33.5323 36.6323 33.871 36.6323C34.0968 36.6323 34.2097 36.7454 34.3226 36.8584C34.4355 36.9715 34.4355 37.0846 34.3226 37.1976C34.3226 37.4238 34.2097 37.5368 33.9839 37.876C33.7581 38.1021 33.6452 38.3283 33.3065 38.5544C33.0807 38.7805 32.742 39.0066 32.4033 39.1197C32.0645 39.2328 31.7258 39.3458 31.3871 39.3458C31.1613 39.3458 30.9355 39.3458 30.8226 39.2328C30.5968 39.2328 30.4839 39.1197 30.371 39.0066C30.2581 39.2328 30.1452 39.4589 30.0323 39.685C29.9194 39.9111 29.9194 40.1373 29.9194 40.4765C29.9194 40.7026 30.0323 40.8156 30.2581 40.9287C30.371 41.0418 30.7097 41.1548 31.2742 41.0418C31.6129 41.0418 31.9516 40.9287 32.2904 40.8156C32.6291 40.7026 32.8549 40.5895 33.1936 40.3634C33.871 40.0242 34.4355 39.7981 34.8871 39.572C35.3387 39.3458 35.7904 39.1197 36.1291 38.8936C36.4678 38.6675 36.9194 38.5544 37.2581 38.3283C37.4839 38.1021 37.8226 37.876 38.2742 37.6499Z" fill="#FBF8F3"/>
<path d="M43.9193 35.5017C43.8064 35.5017 43.8064 35.5017 43.6935 35.6148C43.5806 35.7278 43.5806 35.7278 43.5806 35.8409C43.4677 35.954 43.4677 36.067 43.4677 36.2932L43.8064 35.954C43.9193 35.8409 43.9193 35.7278 44.0322 35.7278C43.9193 35.5017 43.9193 35.5017 43.9193 35.5017ZM48.4355 37.6499C48.5484 37.763 48.6613 37.876 48.5484 37.9891C48.4355 38.1022 48.3226 38.1022 48.2097 38.1022C47.758 38.2152 47.3064 38.3283 46.8548 38.3283C46.4032 38.4413 45.9516 38.4413 45.6129 38.5544C45.1613 38.6675 44.5968 38.6675 44.1451 38.5544C43.6935 38.4413 43.2419 38.3283 43.0161 38.1022C42.9032 37.9891 42.7903 37.9891 42.7903 37.876C42.5645 38.1022 42.2258 38.4413 42 38.6675C41.6613 38.8936 41.4355 39.1197 41.0968 39.3458C40.6451 39.685 40.1935 40.0242 39.629 40.2503C39.5161 40.3634 39.2903 40.4765 39.0645 40.4765C38.6129 40.7026 38.2742 40.7026 38.0484 40.7026C37.7097 40.7026 37.5968 40.5895 37.3709 40.4765C37.258 40.3634 37.1451 40.2503 37.1451 40.1373C37.1451 40.0242 37.1451 39.9112 37.1451 39.685C37.1451 39.572 37.1451 39.4589 37.258 39.3458C37.258 39.2328 37.3709 39.1197 37.4839 38.7805C37.5968 38.4413 37.8226 38.2152 37.9355 37.876C38.1613 37.5368 38.3871 37.3107 38.5 37.0846C38.7258 36.8585 38.9516 36.7454 39.1774 36.8585C39.4032 36.9715 39.4032 36.9715 39.4032 37.0846C39.2903 37.1977 39.1774 37.4238 38.9516 37.6499C38.8387 37.876 38.6129 38.1022 38.6129 38.2152C38.5 38.3283 38.3871 38.5544 38.2742 38.7805C38.2742 38.8936 38.1613 38.8936 38.1613 39.1197C38.0484 39.2328 38.0484 39.3458 38.0484 39.572C38.0484 39.685 37.9355 39.9112 37.9355 40.0242C37.9355 40.1373 37.9355 40.2503 38.0484 40.2503C38.1613 40.2503 38.2742 40.2503 38.5 40.1373C38.7258 40.0242 38.8387 39.9112 39.0645 39.7981C39.2903 39.685 39.5161 39.4589 39.8548 39.2328C40.3064 39.0067 40.6451 38.7805 40.9838 38.4413L42 37.5368C42 37.4238 42.1129 37.4238 42.2258 37.3107C42.3387 37.1977 42.3387 37.1977 42.4516 37.0846C42.5645 37.0846 42.5645 36.9715 42.5645 36.9715C42.5645 36.9715 42.5645 36.8585 42.6774 36.8585C42.6774 36.5193 42.6774 36.1801 42.9032 35.7278C42.9032 35.5017 43.0161 35.3887 43.129 35.2756C43.2419 35.1625 43.3548 35.0495 43.4677 35.0495C43.5806 34.9364 43.6935 34.9364 43.8064 34.9364C44.0322 34.9364 44.1451 34.9364 44.258 34.9364C44.5968 34.9364 44.8226 35.1625 44.9355 35.3887C45.0484 35.6148 44.9355 35.8409 44.8226 35.954C44.5968 36.1801 44.3709 36.4062 44.1451 36.6323C43.8064 36.9715 43.6935 37.1977 43.6935 37.3107C43.6935 37.5368 43.8064 37.6499 44.0322 37.763C44.258 37.876 44.5968 37.9891 44.9355 37.9891C45.0484 37.9891 45.3871 37.9891 45.7258 37.876C46.1774 37.876 46.5161 37.763 46.9677 37.6499C47.3064 37.876 47.8709 37.763 48.4355 37.6499Z" fill="#FBF8F3"/>
<path d="M48.6613 38.3283C48.3226 38.5544 48.4355 38.7805 48.7742 38.8936C49.1129 39.0066 49.5645 38.7805 50.0161 38.4413C50.2419 38.2152 50.4677 37.9891 50.8065 37.763C51.1452 37.5368 51.1452 37.1976 51.1452 36.9715C51.0323 37.0846 50.8065 37.0846 50.6936 37.1976C50.4677 37.3107 50.3548 37.3107 50.2419 37.4238C49.5645 37.5368 49.1129 37.876 48.6613 38.3283ZM56 37.6499C56.5645 37.7629 56.4516 37.9891 55.7742 38.4413C55.4355 38.6675 55.0968 38.7805 54.871 38.8936C54.6452 39.0066 54.4194 39.1197 54.3065 39.2328C54.0806 39.3458 53.9677 39.4589 53.7419 39.572C53.5161 39.685 53.2903 39.7981 52.9516 40.0242C51.9355 40.4765 51.2581 40.9287 50.6936 41.1548C50.129 41.381 49.6774 41.494 49 41.6071C48.6613 41.6071 48.2097 41.6071 47.7581 41.494C47.3064 41.381 47.0806 41.1548 46.8548 40.9287C46.7419 40.7026 46.629 40.5895 46.629 40.3634C46.629 40.1373 46.629 40.0242 46.7419 39.7981C46.9677 39.2328 47.3064 38.7805 47.7581 38.3283C48.2097 37.876 48.7742 37.4238 49.5645 37.0846C49.7903 36.9715 50.0161 36.8584 50.4677 36.7454C50.8065 36.6323 51.2581 36.6323 51.5968 36.6323C51.8226 36.6323 51.9355 36.7454 52.0484 36.8584C52.1613 36.9715 52.1613 37.0846 52.0484 37.1976C52.0484 37.4238 51.9355 37.5368 51.7097 37.876C51.4839 38.1021 51.371 38.3283 51.0323 38.5544C50.8065 38.7805 50.4677 39.0066 50.129 39.1197C49.7903 39.2328 49.4516 39.3458 49.1129 39.3458C48.8871 39.3458 48.6613 39.3458 48.5484 39.2328C48.3226 39.2328 48.2097 39.1197 48.0968 39.0066C47.9839 39.2328 47.871 39.4589 47.7581 39.685C47.6452 39.9111 47.6452 40.1373 47.6452 40.4765C47.6452 40.7026 47.7581 40.8156 47.9839 40.9287C48.0968 41.0418 48.4355 41.1548 49 41.0418C49.3387 41.0418 49.6774 40.9287 50.0161 40.8156C50.3548 40.7026 50.5806 40.5895 50.9194 40.3634C51.5968 40.0242 52.1613 39.7981 52.6129 39.572C53.0645 39.3458 53.5161 39.1197 53.8548 38.8936C54.1936 38.6675 54.6452 38.5544 54.9839 38.3283C55.2097 38.1021 55.5484 37.876 56 37.6499Z" fill="#FBF8F3"/>
<path d="M55.5484 37.8761C55.5484 37.8761 55.3226 37.9891 56 37.5369C56.7903 37.0846 56.5645 37.0846 56.9032 37.1977C57.2419 37.3108 56.9032 37.763 56.9032 37.763C57.2419 37.9891 57.5807 38.1022 57.6936 38.2153C58.1452 38.5545 58.371 38.8936 58.371 39.2328C58.371 39.459 58.371 39.572 58.2581 39.6851C58.2581 39.7981 58.1452 39.9112 58.0323 40.1373C58.0323 40.1373 57.9194 40.2504 57.9194 40.4765C57.9194 40.7026 57.8065 40.8157 57.9194 40.8157C58.0323 40.8157 58.1452 40.8157 58.371 40.8157C58.5968 40.7026 58.7097 40.7026 58.9355 40.5896C59.1613 40.4765 59.3871 40.4765 59.6129 40.3635C59.8387 40.2504 60.0645 40.1373 60.2903 40.0243C60.5161 39.9112 60.7419 39.7981 60.9677 39.6851C61.0807 39.6851 61.1936 39.572 61.6452 39.3459C61.9839 39.1198 62.3226 38.8936 62.6613 38.7806C62.8871 38.6675 63.1129 38.4414 63.3387 38.3283C63.5645 38.2153 63.7903 38.1022 63.7903 37.9891L64.4677 37.5369C64.5806 37.5369 64.6936 37.6499 64.8065 37.6499C65.0323 37.763 65.0323 37.8761 64.9194 37.8761C64.8065 37.8761 64.6936 37.9891 64.5807 38.1022C64.3548 38.3283 64.129 38.4414 63.7903 38.6675L62.7742 39.3459C62.3226 39.572 61.871 39.9112 61.4194 40.1373C60.9678 40.3635 60.5161 40.5896 59.9516 40.8157C59.6129 40.9288 59.2742 41.0418 58.8226 41.1549C58.371 41.268 57.9194 41.268 57.4678 41.268C57.129 41.1549 57.0161 41.1549 56.9032 41.0418C56.7903 40.9288 56.7903 40.8157 56.7903 40.7026C56.7903 40.5896 56.7903 40.4765 56.9032 40.2504C57.0161 40.1373 57.0161 40.0243 57.0161 39.9112C57.129 39.6851 57.129 39.459 57.129 39.1198C57.129 38.8936 56.9032 38.6675 56.5645 38.4414C56.3387 38.3283 56.2258 38.2153 56.1129 38.2153C56 38.1022 55.7742 37.9891 55.6613 37.9891L55.5484 37.8761Z" fill="#FBF8F3"/>
<path d="M71.0161 37.3107C71.2419 37.4237 71.3548 37.5368 71.2419 37.6498C71.129 37.876 71.0161 38.1021 70.7903 38.3282C70.5645 38.5544 70.4516 38.7805 70.2258 39.0066C68.8709 40.8156 66.2742 45.5642 66.1613 45.7904C66.0484 46.0165 66.0484 46.1296 66.0484 46.1296C66.0484 46.2426 65.9355 46.3557 65.7097 46.2426C65.4839 46.2426 65.3709 46.1296 65.258 46.0165C65.258 45.9034 65.258 45.7904 65.258 45.7904C65.3709 45.5642 69.0968 39.3458 69.0968 39.3458C69.2097 39.2327 69.2097 39.1197 69.3226 39.0066C69.4355 38.8935 69.4355 38.7805 69.5484 38.6674C69.5484 38.6674 69.5484 38.5544 69.6613 38.5544C69.6613 38.5544 69.6613 38.4413 69.7742 38.4413L70 38.2152H69.8871H69.7742C69.6613 38.2152 69.6613 38.3282 69.5484 38.3282C69.4355 38.3282 69.3226 38.4413 69.3226 38.4413C68.9839 38.5544 68.6451 38.7805 68.4193 38.8935C68.1935 39.0066 67.7419 39.2327 67.4032 39.3458C67.1774 39.4589 66.9516 39.4589 66.7258 39.5719C66.5 39.685 66.1613 39.685 65.9355 39.685C65.5968 39.685 65.258 39.685 64.9193 39.5719C64.5806 39.4589 64.3548 39.2327 64.3548 39.0066C64.2419 38.7805 64.2419 38.5544 64.3548 38.3282C64.3548 38.1021 64.4677 37.989 64.5806 37.7629C64.6935 37.5368 64.8064 37.4237 65.1451 37.3107C65.3709 37.3107 65.4838 37.3107 65.5968 37.3107C65.8226 37.4237 65.8226 37.5368 65.7097 37.6498C65.5968 37.7629 65.4839 37.876 65.4839 37.989C65.3709 38.1021 65.3709 38.2152 65.3709 38.4413C65.3709 38.5544 65.258 38.6674 65.258 38.8935C65.258 39.0066 65.258 39.1197 65.3709 39.2327C65.3709 39.3458 65.5968 39.4589 65.8226 39.4589C66.1613 39.4589 66.5 39.4589 66.7258 39.3458C67.0645 39.2327 67.2903 39.1197 67.5161 39.0066C67.8548 38.8935 68.1935 38.7805 68.5322 38.6674C68.8709 38.5544 69.0968 38.3282 69.4355 38.2152C69.6613 38.1021 69.8871 37.989 70.1129 37.876C70.3387 37.7629 70.5645 37.6499 70.7903 37.5368C70.9032 37.5368 70.9032 37.5368 70.9032 37.5368C70.9032 37.5368 70.9032 37.5368 71.0161 37.5368C70.5645 37.1976 70.7903 37.1976 71.0161 37.3107Z" fill="#FBF8F3"/>
<path d="M107.145 34.3711C107.371 34.4842 107.371 34.5973 107.258 34.7103C107.032 34.8234 106.919 34.8234 106.694 34.7103C106.581 34.5973 106.468 34.5973 106.242 34.5973C103.984 34.4842 101.613 34.3711 99.3548 34.2581C97.0967 34.145 94.7258 34.145 92.3548 34.0319C90.3226 34.0319 88.2903 34.0319 86.3709 34.0319C84.3387 34.0319 82.4193 34.0319 80.3871 34.145C80.0484 34.145 79.7097 34.145 79.3709 34.145C79.0322 34.145 78.6935 34.145 78.3548 34.145H77.9032C77.6774 34.145 77.2258 34.145 77.1129 34.145C76.6613 34.8234 69.3226 48.1648 69.3226 48.1648C69.3226 48.2779 69.2097 48.3909 69.0968 48.3909C68.9838 48.504 69.0968 48.6171 68.758 48.504C68.6451 48.504 68.5322 48.3909 68.5322 48.3909C68.4193 48.2779 68.4193 48.1648 68.5322 47.9387C68.6451 47.7126 68.758 47.5995 68.8709 47.3734C69.4355 46.4689 74.7419 36.5193 75.0806 36.0671C75.3064 35.6148 75.5322 35.2756 75.8709 34.8234C75.9838 34.7103 75.9838 34.5973 76.0968 34.4842C76.2097 34.3711 76.2097 34.2581 76.3226 34.145C75.8709 34.145 75.5322 34.145 75.1935 34.145C74.8548 34.145 74.629 34.145 74.2903 34.145H73.5C73.1613 34.145 72.7097 34.145 72.3709 34.145C72.0322 34.145 71.6935 34.145 71.2419 34.145H69.3226H68.1935C67.8548 34.145 67.4032 34.145 67.0645 34.0319C66.8387 34.0319 66.6129 33.9189 66.5 33.9189C66.2742 33.8058 66.2742 33.6928 66.2742 33.5797L66.3871 33.4666C66.5 33.4666 66.5 33.3536 66.6129 33.3536C66.8387 33.2405 67.0645 33.2405 67.1774 33.2405C67.4032 33.2405 67.5161 33.2405 67.5161 33.3536C67.629 33.4666 67.5161 33.4666 67.4032 33.5797C67.2903 33.5797 67.2903 33.6928 67.0645 33.6928C66.9516 33.6928 66.9516 33.6928 66.9516 33.6928H66.8387C66.9516 33.6928 67.0645 33.8058 67.1774 33.8058C67.5161 33.8058 67.7419 33.8058 67.9677 33.8058C68.1935 33.8058 68.5322 33.8058 68.758 33.8058H69.7742C70.1129 33.8058 70.4516 33.8058 70.7903 33.8058H71.9193C72.258 33.8058 72.5967 33.8058 72.9355 33.8058C73.0484 33.8058 73.3871 33.8058 73.7258 33.8058C74.0645 33.8058 74.5161 33.8058 74.8548 33.8058C75.3064 33.8058 75.8709 33.8058 76.3226 33.6928C76.4355 33.4666 76.5484 33.3536 76.6613 33.1274C76.7742 32.9013 76.8871 32.7883 77 32.5621C77.1129 32.336 77.3387 32.1099 77.4516 31.8838C77.5645 31.6576 77.7903 31.4315 77.9032 31.2054L78.8064 29.9617C78.9193 29.7356 79.1451 29.5094 79.3709 29.2833C79.3709 29.1702 79.4838 29.1702 79.4838 29.1702C79.4838 29.0572 79.5967 29.0572 79.7097 29.1702C79.8226 29.1702 79.9355 29.1702 80.0484 29.2833C80.1613 29.3964 80.1613 29.5094 80.0484 29.6225C80.0484 29.6225 79.4838 30.3009 79.3709 30.527C79.258 30.7531 77.5645 33.1274 77.2258 33.6928H78.4677H79.3709C79.7097 33.6928 79.9355 33.6928 80.2742 33.6928C82.6451 33.6928 84.9032 33.5797 87.1613 33.5797C89.4193 33.5797 91.7903 33.5797 94.0484 33.6928C96.0806 33.6928 98.1129 33.8058 100.032 33.9189C102.064 34.0319 103.984 34.145 106.016 34.2581C106.129 34.2581 106.129 34.2581 106.242 34.2581C106.355 34.2581 106.468 34.2581 106.581 34.3711C106.919 34.3711 107.032 34.3711 107.145 34.3711Z" fill="#FBF8F3"/>
<path d="M79.371 38.1022C79.2581 38.3283 79.1452 38.5544 79.0323 38.6675C78.9194 38.8936 78.8065 39.0067 78.6936 39.2328C78.8065 39.1197 78.9194 39.1197 78.9194 39.0067C78.9194 38.8936 79.0323 38.8936 79.1452 38.7805C79.2581 38.6675 79.2581 38.6675 79.371 38.6675C79.5968 38.4414 79.8226 38.2152 80.0484 38.1022C80.2742 37.876 80.6129 37.763 80.8387 37.5369C81.0645 37.4238 81.2903 37.3107 81.4032 37.1977C81.8549 37.0846 82.3065 37.0846 82.6452 37.3107C82.871 37.4238 82.9839 37.5369 82.9839 37.6499C82.9839 37.763 82.9839 37.9891 82.9839 38.1022C82.9839 38.4414 82.871 38.6675 82.7581 39.0067C82.6452 39.3459 82.5323 39.572 82.4194 39.9112C82.3065 40.1373 82.3065 40.3634 82.1936 40.4765C82.1936 40.5896 82.1936 40.8157 82.1936 40.9287C82.1936 41.0418 82.1936 41.1549 82.3065 41.1549C82.4194 41.1549 82.5323 41.1549 82.7581 41.0418C82.9839 40.9287 83.0968 40.8157 83.3226 40.7026C83.5484 40.5896 83.7742 40.4765 84.1129 40.2504C84.3387 40.0242 84.6774 39.9112 85.0162 39.685C85.3549 39.4589 85.8065 39.2328 86.0323 39.0067C86.371 38.7805 86.8226 38.5544 87.2742 38.2152C87.6129 38.3283 87.7258 38.4414 87.6129 38.4414C87.5 38.5544 87.5 38.5544 87.3871 38.6675C87.1613 38.8936 86.8226 39.1197 86.5968 39.3459C86.2581 39.572 86.0323 39.7981 85.6936 40.0242C85.3549 40.2504 85.0162 40.4765 84.6774 40.7026C84.3387 40.9287 84.1129 41.0418 83.8871 41.1549C83.7742 41.2679 83.6613 41.2679 83.5484 41.381C83.4355 41.381 83.3226 41.4941 83.3226 41.4941C83.2097 41.4941 83.0968 41.6071 82.9839 41.6071C82.6452 41.7202 82.4194 41.7202 82.0807 41.6071C81.742 41.6071 81.5161 41.381 81.5161 41.1549C81.4032 41.0418 81.4032 40.9287 81.4032 40.7026C81.4032 40.4765 81.5161 40.2504 81.5161 40.0242C81.5161 39.7981 81.6291 39.572 81.742 39.3459C81.8549 39.1197 81.8549 38.8936 81.9678 38.6675L82.0807 38.1022C82.0807 37.9891 82.0807 37.876 82.0807 37.763C82.0807 37.6499 81.9678 37.5369 81.9678 37.5369C81.8549 37.5369 81.742 37.5369 81.5161 37.6499C81.2903 37.763 81.1774 37.876 80.9516 37.9891C80.7258 38.1022 80.5 38.3283 80.2742 38.4414C80.1613 38.4414 80.1613 38.5544 80.0484 38.6675C79.9355 38.7805 79.9355 38.7806 79.8226 38.8936C79.5968 39.1197 79.371 39.2328 79.2581 39.4589C79.1452 39.572 78.9194 39.7981 78.6936 40.0242C78.4678 40.2504 78.3549 40.3634 78.1291 40.5896C78.0161 40.8157 77.7903 40.9287 77.6774 41.1549C77.5645 41.1549 77.5645 41.2679 77.5645 41.2679C77.4516 41.381 77.2258 41.381 77 41.381C76.7742 41.2679 76.6613 41.2679 76.6613 41.1549C76.6613 41.0418 76.6613 40.9287 76.7742 40.7026L77.2258 39.572L77.7903 38.4414C77.9033 38.2152 78.0161 37.9891 78.1291 37.876C78.242 37.6499 78.3549 37.5369 78.4678 37.3107C78.5807 37.0846 78.6936 36.8585 78.8065 36.6324C78.9194 36.4062 79.1452 36.1801 79.2581 35.954C79.371 35.7279 79.4839 35.6148 79.4839 35.3887C79.5968 35.1625 79.7097 35.0495 79.7097 34.9364C79.8226 34.7103 79.9355 34.5972 80.0484 34.3711C80.1613 34.145 80.2742 34.0319 80.3871 33.9188C80.5 33.8058 80.6129 33.5797 80.6129 33.4666C80.7258 33.3535 80.7258 33.1274 80.8387 33.0143L81.2903 32.336C81.4032 32.2229 81.5161 32.1098 81.5161 31.9968C81.6291 31.8837 81.6291 31.7707 81.742 31.6576C81.8549 31.4315 82.0807 31.2053 82.1936 30.9792C82.3065 30.7531 82.4194 30.527 82.6452 30.3008C82.7581 30.0747 82.871 29.9617 82.9839 29.7355C83.0968 29.5094 83.2097 29.3963 83.3226 29.1702L84 28.2657C84 28.1526 84.1129 28.1526 84.2258 28.0396C84.3387 27.9265 84.4516 27.9265 84.4516 27.8135C84.4516 27.8135 84.4516 27.7004 84.5645 27.7004C84.6774 27.5873 84.7903 27.5873 84.9032 27.7004C85.0161 27.7004 85.1291 27.8135 85.1291 27.9265C85.0162 28.0396 84.9032 28.1526 84.9032 28.2657C84.7903 28.3788 84.6774 28.6049 84.5645 28.718C84.4516 28.831 84.3387 29.0572 84.2258 29.1702C84 29.5094 83.7742 29.7355 83.6613 30.0747C83.5484 30.1878 83.4355 30.3008 83.4355 30.527C83.4355 30.7531 83.3226 30.7531 83.2097 30.9792C83.0968 31.2053 82.9839 31.4315 82.871 31.5445C82.7581 31.7707 82.6452 31.8837 82.5323 32.1098C82.3065 32.5621 81.9678 33.0143 81.742 33.4666C81.6291 33.6927 81.5162 33.9189 81.2903 34.145C81.1774 34.3711 80.9516 34.5972 80.8387 34.9364C80.7258 35.1625 80.6129 35.3887 80.5 35.6148C80.3871 35.8409 80.2742 36.067 80.1613 36.2932L79.371 38.1022Z" fill="#FBF8F3"/>
<path d="M88.629 36.8585C88.4032 36.8585 88.4032 36.7454 88.4032 36.6323C88.4032 36.5193 88.629 36.2931 88.629 36.1801C88.742 36.067 88.8549 36.067 89.0807 36.067C89.1936 36.1801 89.1936 36.1801 89.1936 36.2931L88.9678 36.6323C88.8549 36.8585 88.742 36.8585 88.629 36.8585ZM93.8226 38.2152C94.0484 38.4413 94.1613 38.5544 94.0484 38.5544C93.9355 38.6675 93.5968 38.7805 93.2581 39.0066C92.9194 39.1197 92.5807 39.3458 92.2419 39.4589C91.9032 39.572 91.5645 39.7981 91.2258 39.9112C91 40.0242 90.7742 40.1373 90.5484 40.2503C90.3226 40.3634 90.0968 40.4765 89.871 40.5895C89.6452 40.7026 89.4194 40.8157 89.1936 40.8157C88.9678 40.9287 88.742 40.9287 88.5161 41.0418C88.2903 41.0418 88.1774 41.0418 88.0645 41.0418C87.9516 41.0418 87.7258 41.0418 87.6129 41.0418C87.2742 40.9287 87.0484 40.9287 86.9355 40.7026C86.7097 40.4765 86.5968 40.2503 86.7097 40.0242C86.8226 39.7981 86.9355 39.4589 87.0484 39.3458C87.1613 39.0066 87.2742 38.7805 87.3871 38.6675C87.5 38.4413 87.6129 38.2152 87.8387 37.9891C87.9516 37.876 88.0645 37.763 88.1774 37.6499C88.2903 37.6499 88.2903 37.5368 88.2903 37.5368C88.4032 37.5368 88.629 37.5368 88.742 37.5368C88.8549 37.5368 88.9678 37.6499 88.9678 37.6499C88.9678 37.763 88.9678 37.876 88.742 38.1021C88.629 38.3283 88.5161 38.5544 88.4032 38.6675C88.2903 38.8936 88.0645 39.1197 88.0645 39.3458C87.9516 39.572 87.8387 39.7981 87.7258 40.0242C87.6129 40.2503 87.7258 40.4765 87.9516 40.5895C88.0645 40.5895 88.2903 40.5895 88.629 40.4765C88.9678 40.3634 89.1936 40.2503 89.3065 40.1373C89.6452 40.0242 90.0968 39.7981 90.4355 39.685C90.7742 39.572 91.2258 39.3458 91.5645 39.2328C91.7903 39.1197 92.1291 39.0067 92.3549 38.8936C92.5807 38.7805 92.9194 38.6675 93.1452 38.5544C93.1452 38.5544 93.4839 38.3283 93.8226 38.2152Z" fill="#FBF8F3"/>
<path d="M97.7742 40.5895C98 40.4764 98.2258 40.3634 98.4516 40.2503C98.6774 40.1373 98.7903 40.1373 99.0161 40.0242C99.2419 39.9111 99.5807 39.7981 100.032 39.5719C100.484 39.3458 100.935 39.1197 101.387 38.8936C101.952 38.6674 102.516 38.4413 103.081 38.1021C103.306 38.2152 103.419 38.2152 103.306 38.3283L103.194 38.4413C102.968 38.5544 102.742 38.6674 102.516 38.7805C102.29 38.8936 102.177 39.0066 101.952 39.1197C101.726 39.2328 101.613 39.3458 101.387 39.4589C101.161 39.5719 100.935 39.685 100.71 39.7981C100.371 39.9111 100.145 40.0242 99.9194 40.1373C99.8065 40.2503 99.5807 40.3634 99.3549 40.4764C99.129 40.5895 98.9032 40.7026 98.6774 40.8156C98.4516 40.9287 98.2258 41.0418 98.1129 41.0418C97.7742 41.1548 97.5484 41.1548 97.3226 41.0418C97.0968 40.9287 96.9839 40.8156 96.9839 40.7026C96.9839 40.5895 96.9839 40.4764 96.9839 40.3634L97.4355 39.2328C97.4355 39.1197 97.5484 39.0066 97.5484 39.0066C97.5484 38.8936 97.6613 38.7805 97.6613 38.7805C97.6613 38.6674 97.7742 38.5544 97.7742 38.4413C97.7742 38.3283 97.7742 38.3283 97.8871 38.2152C97.7742 38.2152 97.6613 38.3283 97.5484 38.3283C97.4355 38.3283 97.4355 38.3283 97.3226 38.4413C96.9839 38.5544 96.6452 38.7805 96.4194 38.8936C96.1936 39.0066 95.8548 39.2328 95.629 39.3458C95.4032 39.4589 95.1774 39.685 94.8387 39.7981C94.6129 39.9111 94.3871 40.1373 94.0484 40.2503C93.9355 40.2503 93.8226 40.3634 93.7097 40.4764C93.5968 40.4764 93.371 40.4764 93.2581 40.4764C93.1452 40.4764 93.0323 40.3634 92.9194 40.2503C92.9194 40.1373 92.9194 40.0242 92.9194 40.0242C92.9194 39.9111 93.0323 39.7981 93.1452 39.5719C93.2581 39.3458 93.2581 39.1197 93.371 39.0066C93.4839 38.7805 93.4839 38.6674 93.5968 38.4413C93.7097 38.3283 93.7097 38.2152 93.7097 38.2152C93.8226 38.1021 94.0484 38.1021 94.1613 38.1021C94.3871 38.1021 94.5 38.2152 94.5 38.4413C94.3871 38.5544 94.3871 38.6674 94.3871 38.8936C94.3871 39.0066 94.2742 39.1197 94.2742 39.3458C94.2742 39.3458 94.1613 39.4589 94.1613 39.685C94.6129 39.3458 95.0645 39.1197 95.5161 38.7805C95.9678 38.5544 96.5323 38.3283 97.0968 37.9891C97.2097 37.9891 97.3226 37.876 97.4355 37.876C97.5484 37.7629 97.7742 37.7629 97.8871 37.7629C98.1129 37.7629 98.2258 37.7629 98.4516 37.876C98.5645 37.9891 98.6774 37.9891 98.6774 38.1021C98.6774 38.2152 98.7903 38.3283 98.7903 38.3283C98.7903 38.4413 98.7903 38.5544 98.7903 38.5544C98.6774 38.7805 98.6774 39.0066 98.5645 39.2328C98.4516 39.4589 98.3387 39.685 98.2258 39.9111C98.2258 40.0242 98.1129 40.1373 98.1129 40.2503C98.1129 40.3634 98 40.4764 98 40.5895C97.7742 40.4764 97.7742 40.4764 97.7742 40.5895Z" fill="#FBF8F3"/>
<path d="M103.194 40.0243C103.419 39.9112 103.645 39.7982 103.871 39.572C104.097 39.3459 104.323 39.3459 104.323 39.2328C104.323 39.2328 104.435 39.1198 104.548 39.1198C104.661 39.0067 104.774 38.8937 104.887 38.7806C105 38.6675 105.113 38.5545 105.339 38.3283C105.226 38.2153 105 38.2153 104.774 38.2153C104.548 38.2153 104.435 38.2153 104.21 38.3283C103.645 38.4414 103.194 38.6675 102.855 39.0067C102.516 39.2328 102.29 39.572 102.29 39.9112L102.403 40.2504C102.403 40.3635 102.516 40.3635 102.742 40.3635C102.855 40.3635 102.968 40.2504 103.081 40.2504C102.968 40.1373 103.081 40.0243 103.194 40.0243ZM103.758 42.6247C103.758 42.6247 102.065 43.5292 101.048 44.886C100.597 45.4513 100.371 46.0166 100.371 46.5819C100.371 46.808 100.71 47.0342 101.048 47.0342C102.403 46.3558 103.871 43.077 103.758 42.6247ZM110.758 38.2153C110.984 38.3283 111.097 38.4414 111.097 38.4414C111.097 38.5545 111.097 38.5545 110.871 38.7806C110.645 38.8937 105.339 41.8333 104.774 42.2855C104.774 42.3986 103.645 45.4513 102.855 46.3558C102.629 46.5819 101.5 48.0517 100.145 47.5995C99.3548 47.3734 99.4677 45.7905 99.9193 44.999C101.048 43.4162 103.871 41.6072 103.984 41.4941C103.984 41.381 105 39.7982 105.113 39.572C105 39.6851 104.774 39.7982 104.661 39.7982C104.548 39.9112 104.435 40.0243 104.21 40.0243C104.097 40.1373 103.984 40.1373 103.758 40.2504C103.532 40.3635 103.419 40.4765 103.194 40.4765C102.968 40.5896 102.742 40.5896 102.516 40.5896C102.29 40.5896 102.065 40.4765 101.839 40.3635C101.5 40.1373 101.274 39.7982 101.387 39.459C101.5 39.1198 101.726 38.7806 101.839 38.5545C102.403 37.9891 103.306 37.65 104.435 37.5369C104.774 37.5369 105.113 37.5369 105.452 37.65C105.565 37.65 105.565 37.65 105.677 37.763L105.79 37.65C105.79 37.65 106.468 36.7455 106.581 36.6324C106.694 36.4063 106.919 36.4063 107.258 36.5193C107.597 36.6324 107.71 36.7455 107.597 36.8585C107.032 37.4238 105.226 39.7982 105 40.9288C105.226 41.0418 110.306 38.4414 110.758 38.2153Z" fill="#FBF8F3"/>
<path d="M20.7738 27.3612H20.8867C21.5641 27.3612 22.0157 26.5697 21.5641 26.0044L12.5318 13.7937C12.306 13.4545 12.306 13.0022 12.5318 12.7761L20.8867 1.46982C21.3383 0.904502 20.8867 0.113063 20.2092 0.113063C19.9834 0.113063 19.6447 0.226126 19.5318 0.452251L11.7415 10.9671C11.2899 11.3063 10.6125 11.3063 10.2738 10.854L2.48343 0.339188C2.37053 0.113063 2.03182 0 1.80601 0H1.58021C0.902786 0 0.451174 0.791439 0.902787 1.35675L9.25762 12.663C9.48343 13.0022 9.48343 13.4545 9.25762 13.6806L0.225367 26.0044C-0.226246 26.5697 0.225367 27.3612 0.902787 27.3612H1.01569C1.2415 27.3612 1.58021 27.2481 1.69311 27.022L10.1609 15.7157C10.4996 15.2635 11.177 15.2635 11.6286 15.7157L20.0963 27.1351C20.2092 27.2481 20.435 27.3612 20.7738 27.3612Z" fill="#F5CC82"/>
<path d="M31.1613 26.4567C31.1613 27.022 31.5 27.3612 32.0645 27.3612H47.9839C48.4355 27.3612 48.8871 27.022 48.8871 26.4567C48.8871 26.0044 48.5484 25.5522 47.9839 25.5522H31.9516C31.5 25.5522 31.1613 26.0044 31.1613 26.4567ZM47.9839 0H31.9516C31.5 0 31.0484 0.339188 31.0484 0.904502C31.0484 1.35675 31.3871 1.809 31.9516 1.809H47.871C48.3226 1.809 48.7742 1.46982 48.7742 0.904502C48.8871 0.339188 48.4355 0 47.9839 0ZM47.9839 12.55H31.9516C31.5 12.55 31.0484 12.8892 31.0484 13.4545C31.0484 14.0198 31.3871 14.359 31.9516 14.359H47.871C48.3226 14.359 48.7742 14.0198 48.7742 13.4545C48.7742 12.8892 48.4355 12.55 47.9839 12.55Z" fill="#F5CC82"/>
<path d="M79.0323 2.48738C77.1129 0.791439 74.4032 0 70.9032 0H61.9839C61.5322 0 61.0806 0.339188 61.0806 0.904502C61.0806 1.35675 61.4193 1.809 61.9839 1.809H70.9032C73.8387 1.809 75.9839 2.48738 77.5645 3.73107C79.1452 4.97476 79.8226 6.89683 79.8226 9.15808C79.8226 11.5324 79.0322 13.3414 77.5645 14.5851C75.9839 15.8288 73.7258 16.5072 70.9032 16.5072H61.9839C61.5322 16.5072 61.0806 16.8464 61.0806 17.4117V26.4567C61.0806 26.9089 61.4193 27.3612 61.9839 27.3612H62.2097C62.6613 27.3612 63.1129 27.022 63.1129 26.4567V19.2207C63.1129 18.7684 63.4516 18.3162 64.0161 18.3162H70.9032C74.2903 18.3162 77 17.5247 79.0323 15.9418C80.9516 14.2459 81.9677 12.0977 81.9677 9.15808C81.9677 6.33152 80.9516 4.07026 79.0323 2.48738Z" fill="#F5CC82"/>
<path d="M110.419 2.48738C108.387 0.791439 105.677 0 102.29 0H93.3709C92.9193 0 92.4677 0.339188 92.4677 0.904502C92.4677 1.35675 92.8064 1.809 93.3709 1.809H102.29C105.226 1.809 107.371 2.48738 108.952 3.73107C110.532 4.97476 111.21 6.89683 111.21 9.15808C111.21 11.5324 110.419 13.3414 108.952 14.5851C107.371 15.8288 105.113 16.5072 102.29 16.5072H93.3709C92.9193 16.5072 92.4677 16.8464 92.4677 17.4117V26.4567C92.4677 26.9089 92.8064 27.3612 93.3709 27.3612H93.5967C94.0484 27.3612 94.5 27.022 94.5 26.4567V19.2207C94.5 18.7684 94.8387 18.3162 95.4032 18.3162H102.29C105.677 18.3162 108.387 17.5247 110.419 15.9418C112.339 14.2459 113.355 12.0977 113.355 9.15808C113.355 6.33152 112.339 4.07026 110.419 2.48738Z" fill="#F5CC82"/>
<path d="M128.145 2.71351V26.5698C128.145 27.022 128.484 27.4743 129.048 27.4743H129.274C129.726 27.4743 130.177 27.1351 130.177 26.5698V2.71351C130.177 2.26126 130.516 1.809 131.081 1.809H139.21C139.661 1.809 140.113 1.46982 140.113 0.904502C140.113 0.452251 139.774 0 139.21 0H119.226C118.774 0 118.323 0.339188 118.323 0.904502C118.323 1.35675 118.661 1.809 119.226 1.809H127.355C127.806 1.809 128.145 2.14819 128.145 2.71351Z" fill="#F5CC82"/>
</g>
</g>
<defs>
<clipPath id="clip0_1_468">
<rect width="140" height="48.5039" fill="white"/>
</clipPath>
<clipPath id="clip1_1_468">
<rect width="140" height="48.5039" fill="white"/>
</clipPath>
</defs>
</svg>
